<?xml version="1.0" encoding="UTF-8" standalone="no"?>
<!-- Created with Inkscape (http://www.inkscape.org/) -->
<svg xmlns:inkscape="http://www.inkscape.org/namespaces/inkscape" xmlns:rdf="http://www.w3.org/1999/02/22-rdf-syntax-ns#" xmlns="http://www.w3.org/2000/svg" xmlns:sodipodi="http://sodipodi.sourceforge.net/DTD/sodipodi-0.dtd" xmlns:cc="http://creativecommons.org/ns#" xmlns:xlink="http://www.w3.org/1999/xlink" xmlns:dc="http://purl.org/dc/elements/1.1/" xmlns:svg="http://www.w3.org/2000/svg" xmlns:ns1="http://sozi.baierouge.fr" id="svg2" sodipodi:docname="laptop.svg" sodipodi:modified="true" inkscape:export-filename="C:\Users\ASantos\Desktop\Laptop.png" viewBox="0 0 370.31 345.41" sodipodi:version="0.32" inkscape:export-xdpi="98" version="1.0" inkscape:output_extension="org.inkscape.output.svg.inkscape" inkscape:export-ydpi="98" inkscape:version="0.47pre3 ">
  <title id="title6099">Laptop</title>
  <sodipodi:namedview id="base" inkscape:zoom="2.6725147" height="400px" borderopacity="1.0" inkscape:current-layer="layer3" inkscape:cx="185.23331" inkscape:cy="208.39713" showgrid="false" width="400px" inkscape:guide-bbox="true" showguides="true" bordercolor="#666666" inkscape:window-x="0" guidetolerance="10" objecttolerance="10" inkscape:window-y="22" inkscape:window-width="1277" inkscape:pageopacity="0.0" inkscape:pageshadow="2" pagecolor="#ffffff" gridtolerance="10000" inkscape:document-units="px" inkscape:window-height="751"/>
  <defs id="defs4">
    <linearGradient id="linearGradient4396" inkscape:collect="always">
      <stop id="stop4398" style="stop-color:#ffffff" offset="0"/>
      <stop id="stop4400" style="stop-color:#ffffff;stop-opacity:0" offset="1"/>
    </linearGradient>
    <linearGradient id="linearGradient4376">
      <stop id="stop4378" style="stop-color:#a3a3a3" offset="0"/>
      <stop id="stop4380" style="stop-color:#515151" offset="1"/>
    </linearGradient>
    <linearGradient id="linearGradient4360" inkscape:collect="always">
      <stop id="stop4362" style="stop-color:#2b2b2b" offset="0"/>
      <stop id="stop4364" style="stop-color:#808080;stop-opacity:0" offset="1"/>
    </linearGradient>
    <radialGradient id="radialGradient3429" gradientUnits="userSpaceOnUse" cy="199.74" cx="180.01" gradientTransform="matrix(.67101 -.89982 .56586 .42198 -55.578 271.78)" r="104.54" inkscape:collect="always">
      <stop id="stop3759" style="stop-color:#4d4d4d" offset="0"/>
      <stop id="stop3761" style="stop-color:#000000" offset="1"/>
    </radialGradient>
    <linearGradient id="linearGradient4272" y2="120.95" gradientUnits="userSpaceOnUse" x2="65.84" y1="110.96" x1="61.558" inkscape:collect="always">
      <stop id="stop4268" style="stop-color:#595959" offset="0"/>
      <stop id="stop4270" style="stop-color:#ffffff;stop-opacity:0" offset="1"/>
    </linearGradient>
    <linearGradient id="linearGradient4280" y2="263.18" gradientUnits="userSpaceOnUse" x2="175.06" y1="218.95" x1="145.2" inkscape:collect="always">
      <stop id="stop4276" style="stop-color:#4a4a4a" offset="0"/>
      <stop id="stop4278" style="stop-color:#cccccc;stop-opacity:0" offset="1"/>
    </linearGradient>
    <linearGradient id="linearGradient4312" y2="352.42" gradientUnits="userSpaceOnUse" x2="343.23" y1="255.79" x1="326.87" inkscape:collect="always">
      <stop id="stop4308" style="stop-color:#cccccc" offset="0"/>
      <stop id="stop4310" style="stop-color:#7a7a7a" offset="1"/>
    </linearGradient>
    <linearGradient id="linearGradient4320" y2="349.45" gradientUnits="userSpaceOnUse" x2="172.96" y1="316.25" x1="123.89" inkscape:collect="always">
      <stop id="stop4316" style="stop-color:#cccccc" offset="0"/>
      <stop id="stop4318" style="stop-color:#999999" offset="1"/>
    </linearGradient>
    <filter id="filter4330" inkscape:collect="always" color-interpolation-filters="sRGB">
      <feGaussianBlur id="feGaussianBlur4332" stdDeviation="3.1671425" inkscape:collect="always"/>
    </filter>
    <linearGradient id="linearGradient4340" y2="134.43" gradientUnits="userSpaceOnUse" x2="22.171" y1="254.93" x1="113.18" inkscape:collect="always">
      <stop id="stop4336" style="stop-color:#464646" offset="0"/>
      <stop id="stop4338" style="stop-color:#cccccc;stop-opacity:0" offset="1"/>
    </linearGradient>
    <linearGradient id="linearGradient4348" y2="151.5" gradientUnits="userSpaceOnUse" x2="157.94" y1="69.689" x1="128.85" inkscape:collect="always">
      <stop id="stop4344" style="stop-color:#ffffff" offset="0"/>
      <stop id="stop4346" style="stop-color:#ffffff;stop-opacity:0" offset="1"/>
    </linearGradient>
    <filter id="filter4354" inkscape:collect="always" color-interpolation-filters="sRGB">
      <feGaussianBlur id="feGaussianBlur4356" stdDeviation="0.76840018" inkscape:collect="always"/>
    </filter>
    <linearGradient id="linearGradient4366" y2="272.67" xlink:href="#linearGradient4360" gradientUnits="userSpaceOnUse" x2="108.32" y1="275.57" x1="107.47" inkscape:collect="always"/>
    <linearGradient id="linearGradient4374" y2="259.52" gradientUnits="userSpaceOnUse" x2="93.066" y1="262.8" x1="92.464" inkscape:collect="always">
      <stop id="stop4370" style="stop-color:#6f6f6f" offset="0"/>
      <stop id="stop4372" style="stop-color:#a9a9a9" offset="1"/>
    </linearGradient>
    <linearGradient id="linearGradient4382" y2="275.89" xlink:href="#linearGradient4376" gradientUnits="userSpaceOnUse" x2="117.06" y1="269.24" x1="112.19" inkscape:collect="always"/>
    <linearGradient id="linearGradient4402" y2="270.64" xlink:href="#linearGradient4396" gradientUnits="userSpaceOnUse" x2="115.43" y1="267.32" x1="113.22" inkscape:collect="always"/>
    <filter id="filter4404" inkscape:collect="always" color-interpolation-filters="sRGB">
      <feGaussianBlur id="feGaussianBlur4406" stdDeviation="0.21332094" inkscape:collect="always"/>
    </filter>
    <filter id="filter4298-9-1" color-interpolation-filters="sRGB" inkscape:collect="always">
      <feGaussianBlur id="feGaussianBlur4300-4-1" stdDeviation="0.77751623" inkscape:collect="always"/>
    </filter>
    <linearGradient id="linearGradient5326" y2="172.54" gradientUnits="userSpaceOnUse" x2="227.05" y1="173.37" x1="102.6" inkscape:collect="always">
      <stop id="stop5330" style="stop-color:#a3a3a3" offset="0"/>
      <stop id="stop5332" style="stop-color:#c4c4c4" offset="1"/>
    </linearGradient>
    <linearGradient id="linearGradient5654" y2="294.59" gradientUnits="userSpaceOnUse" x2="334.11" gradientTransform="matrix(.71903 0 0 .71469 59.91 72.45)" y1="263.72" x1="289.42" inkscape:collect="always">
      <stop id="stop4292-2-1" style="stop-color:#404040" offset="0"/>
      <stop id="stop4294-4-7" style="stop-color:#ffffff;stop-opacity:0" offset="1"/>
    </linearGradient>
    <filter id="filter6093" inkscape:collect="always" color-interpolation-filters="sRGB">
      <feGaussianBlur id="feGaussianBlur6095" stdDeviation="0.37888723" inkscape:collect="always"/>
    </filter>
  </defs>
  <g id="layer1" inkscape:label="Layer 1" inkscape:groupmode="layer" transform="translate(-11.6 -34.764)">
    <path id="path2486" style="opacity:.86547;filter:url(#filter4330);fill-rule:evenodd;fill:url(#linearGradient4340)" d="m205.33 377.48-153.86-91.14-40.302-136.34 216.35-90.098 11.54 111.91 136.82 50.94-170.55 154.73z" inkscape:export-ydpi="98" sodipodi:nodetypes="ccccccc" transform="matrix(.97473 0 0 .97473 8.1233 4.8259)" inkscape:export-xdpi="98"/>
    <path id="path5140" style="stroke:#000000;stroke-width:1.0228px;fill:none" d="m103.95 273.26 8.8769 4.8688 17.326-11.458-8.6954-4.5853-17.508 11.174z" sodipodi:nodetypes="ccccc"/>
    <path id="path2172" style="stroke-linejoin:round;fill-rule:evenodd;stroke:#999999;stroke-linecap:round;stroke-width:.81824;fill:#d9d9d9" d="m67.876 278.38 141.12 81.93 162.29-149.38-121.19-44.81-182.22 112.26z" sodipodi:nodetypes="ccccc"/>
    <path id="path16273" sodipodi:nodetypes="cccccc" style="opacity:.36323;fill-rule:evenodd;fill:#ffffff;fill-opacity:.50538" d="m273.58 175.68c-89.274 58.098-90.938 59.703-175.42 117.33l71.186 42.106c83.783-25.593 173.23-70.287 161.89-140.04l-35.67-11.962-21.988-7.4404z"/>
    <path id="path2174" style="stroke-linejoin:round;fill-rule:evenodd;stroke:#cccccc;stroke-linecap:round;stroke-width:.81824;fill:url(#linearGradient4320)" d="m68.172 278.57 0.25657 2.8704 139.81 84.419c3.2527-1.7531 1.9185-5.2538-1.1825-6.9866l-138.89-80.3z" sodipodi:nodetypes="ccccc"/>
    <path id="path2176" style="stroke-linejoin:round;fill-rule:evenodd;stroke:#cccccc;stroke-linecap:round;stroke-width:.81824;fill:url(#linearGradient4312)" d="m371.08 210.9c1.5622 0.66509 1.0584 2.3801-0.5446 3.828l-162.01 151.13c1.3392-1.39 2.1057-5.2695-1.1136-6.8384l163.66-148.12z" sodipodi:nodetypes="ccccc"/>
    <path id="path2178" d="m40.042 120.75s25.473 159.15 27.581 157c2.1078-2.1576 181.55-112.49 181.55-112.49l-0.9237-128.24c-0.32077-1.2553-1.2175-2.1306-2.6385-1.7587l-205.57 85.489z" style="stroke-linejoin:round;fill-rule:evenodd;stroke:#b3b3b3;stroke-linecap:round;stroke-width:.81824;fill:url(#linearGradient5326)" sodipodi:nodetypes="cscccc"/>
    <path id="path2182" style="fill-rule:evenodd;fill:url(#linearGradient4272)" d="m245.45 34.999c2.0669-0.42465 2.446 0.88506 2.9596 1.8128l-204.67 84.508c-1.5092-1.0605-1.7427-1.3036-3.6739-0.94065l205.38-85.381z" inkscape:export-ydpi="98" sodipodi:nodetypes="ccccc" inkscape:export-xdpi="98"/>
    <path id="path3155" style="stroke-linejoin:round;fill-rule:evenodd;stroke:#808080;stroke-width:0.623;fill:url(#radialGradient3429)" d="m46.072 122.89 200.81-84.281 1.19 114.1-181.18 110.23-20.818-140.05z" sodipodi:nodetypes="ccccc"/>
    <path id="path4130" style="stroke-opacity:.20968;stroke:#ffffff;stroke-width:0.723;fill:none" d="m270.3 173.9-175.77 115.92-8.169-4.62 176.18-114.38l7.7623 3.0761z" sodipodi:nodetypes="ccccc"/>
    <path id="path2180" style="stroke-linejoin:round;fill-rule:evenodd;stroke:#b3b3b3;stroke-linecap:round;stroke-width:.81824;fill:#cccccc" d="m40.043 120.82c0.68664-0.90445 2.5809-0.47141 3.5056 0.95765l23.934 156.24-2.189-1.54-25.251-155.66z" inkscape:transform-center-x="21.926591" inkscape:transform-center-y="-98.60823" sodipodi:nodetypes="ccccc"/>
    <path id="path13298" style="fill-rule:evenodd;fill:url(#linearGradient4280)" d="m92.829 260.22 137.25-83.86c1.7415 1.0689 2.3625-0.67451 2.4217 1.4038l-137.78 85.42c-0.24318-1.9661 0.39558-1.9355-1.8931-2.964z" sodipodi:nodetypes="ccccc"/>
    <path id="path3477" sodipodi:nodetypes="ccccc" style="opacity:.46188;filter:url(#filter4354);fill-rule:evenodd;fill:url(#linearGradient4348)" d="m244.83 41.397-196.91 82.717 4.2931 27.388c85.387-46.4 117.38 0.88 192.96-54.216l-0.34114-55.887z"/>
    <path id="path4358" sodipodi:rx="1.6216167" sodipodi:ry="1.6216167" style="color:#000000;fill:url(#linearGradient4374)" sodipodi:type="arc" d="m95.159 261.5c0 0.89559-0.72602 1.6216-1.6216 1.6216-0.89559 0-1.6216-0.72602-1.6216-1.6216 0-0.8956 0.72602-1.6216 1.6216-1.6216 0.89559 0 1.6216 0.72602 1.6216 1.6216z" transform="matrix(.67607 -.41078 .55822 .94059 -115.2 54.033)" sodipodi:cy="261.49921" sodipodi:cx="93.537796"/>
    <g id="g4408" style="opacity:.6">
      <path id="path6299" sodipodi:nodetypes="ccccc" style="stroke-linejoin:round;fill-rule:evenodd;stroke:#b3b3b3;stroke-width:.20456;fill:url(#linearGradient4382)" d="m112.55 278.27 17.521-11.661c-1.4668-3.0068-4.2055-5.1623-8.6034-4.7679l-17.42 11.443c3.0375-2.075 8.9386 2.527 8.502 4.9862z"/>
      <path id="path4349" sodipodi:nodetypes="ccc" style="opacity:0.69;fill:url(#linearGradient4366)" d="m104.03 273.3c3.4667-2.241 9.4019 3.3152 8.4914 5.0635l-8.4914-5.0635z"/>
      <path id="path4392" sodipodi:nodetypes="ccccc" d="m112.99 277.17 16.199-10.79c-1.3006-2.6301-3.729-4.5156-7.6286-4.1706l-16.109 10.599c2.767-1.1516 7.115 2.3579 7.5388 4.3615z" style="filter:url(#filter4404);fill-rule:evenodd;fill:url(#linearGradient4402)" transform="matrix(.95609 0 0 .97220 5.1518 7.4956)"/>
    </g>
    <g id="g4413" style="opacity:.33632" transform="translate(20.338 -13.714)">
      <path id="path4415" d="m112.55 278.27 17.521-11.661c-1.4668-3.0068-4.2055-5.1623-8.6034-4.7679l-17.42 11.443c3.0375-2.075 8.9386 2.527 8.502 4.9862z" style="stroke-linejoin:round;fill-rule:evenodd;stroke:#b3b3b3;stroke-width:.20456;fill:url(#linearGradient4382)" sodipodi:nodetypes="ccccc"/>
      <path id="path4417" d="m104.03 273.3c3.4667-2.241 9.4019 3.3152 8.4914 5.0635l-8.4914-5.0635z" style="opacity:0.69;fill:url(#linearGradient4366)" sodipodi:nodetypes="ccc"/>
      <path id="path4419" sodipodi:nodetypes="ccccc" style="filter:url(#filter4404);fill:url(#linearGradient4402);fill-rule:evenodd" d="m112.99 277.17 16.199-10.79c-1.3006-2.6301-3.729-4.5156-7.6286-4.1706l-16.109 10.599c2.767-1.1516 7.115 2.3579 7.5388 4.3615z" transform="matrix(.95609 0 0 .97220 5.1518 7.4956)"/>
    </g>
  </g>
  <g id="layer2" inkscape:label="Layer" inkscape:groupmode="layer" transform="translate(-11.6 -34.764)">
    <path id="rect2202" style="fill:#808080" d="m210.82 281.1l50.096-40.3c0.60263-0.47932 1.8462-0.48924 2.7912-0.0227l7.6512 3.7625c0.95925 0.47355 1.2554 1.2498 0.66111 1.7408l-49.332 41.46c-0.73949 0.61097-2.1603 0.64191-3.1817 0.0687l-8.2257-4.6169c-1.0045-0.56372-1.2079-1.497-0.45981-2.092" sodipodi:nodetypes="cccccccccc"/>
    <path id="path2449" style="fill-rule:evenodd;stroke:#000000;stroke-width:1.0228px;fill:#ff00ff" d="m208.16 282.72 11.362 6.4551-8.3652 7.0479-11.552-6.5129 8.5555-6.99z"/>
    <path id="path2451" style="fill-rule:evenodd;stroke:#000000;stroke-width:1.0228px;fill:#ff00ff" d="m198.54 290.5 11.661 6.476-8.6946 7.3113-11.362-7.0149 8.3958-6.7724z"/>
    <path id="path2453" style="fill-rule:evenodd;stroke:#000000;stroke-width:1.0228px;fill:#ff00ff" d="m189.25 297.97 11.366 7.001-8.9487 7.4474-11.939-6.8164 9.5225-7.632z"/>
    <path id="path2455" style="fill-rule:evenodd;stroke:#000000;stroke-width:1.0228px;fill:#ff00ff" d="m178.84 306.38 11.984 6.8273-10.982 9.2614-12.179-6.9674 11.177-9.1214z"/>
    <path id="path2457" style="fill-rule:evenodd;stroke:#000000;stroke-width:1.0228px;fill:#ff00ff" d="m262.81 238.85 10.51 5.2026 7.97-6.6032-10.562-4.9187-7.9178 6.3194z" sodipodi:nodetypes="ccccc"/>
    <path id="path2459" style="fill-rule:evenodd;stroke:#000000;stroke-width:1.0228px;fill:#ff00ff" d="m271.72 231.78 7.5524-6.0924 10.804 4.6246-7.8532 6.3701-10.503-4.9022z" sodipodi:nodetypes="ccccc"/>
    <path id="path2461" style="fill-rule:evenodd;stroke:#000000;stroke-width:1.0228px;fill:#ff00ff" d="m280.29 224.91 10.711 4.6268 7.4947-6.2411-10.342-4.7846-7.8633 6.399z" sodipodi:nodetypes="ccccc"/>
    <path id="path2463" style="fill-rule:evenodd;stroke:#000000;stroke-width:1.0228px;fill:#ff00ff" d="m279.07 224.44-8.9956-4.4588 8.0976-6.2974 8.9226 4.3284-8.0246 6.4278z" sodipodi:nodetypes="ccccc"/>
    <path id="path2465" style="fill-rule:evenodd;stroke:#000000;stroke-width:1.0228px;fill:#ff00ff" d="m166.55 314.84-10.935-6.1566 22.239-17.025 10.307 5.669-21.611 17.512z"/>
    <path id="path2467" style="fill-rule:evenodd;stroke:#000000;stroke-width:1.0228px;fill:#ff00ff" d="m279.21 212.86 8.7769 4.3033 21.02-16.982-9.0936-3.5619-20.703 16.241z" sodipodi:nodetypes="ccccc"/>
    <path id="path2469" style="fill-rule:evenodd;stroke:#000000;stroke-width:1.0228px;fill:#ff00ff" d="m287.21 205.19 11.54-9.0671-21.586-8.3781-14.401 10.64 9.8278 3.9363 2.723-2.0823 11.896 4.9507z" sodipodi:nodetypes="ccccccc"/>
    <path id="path2471" style="fill-rule:evenodd;stroke:#000000;stroke-width:1.0228px;fill:#ff00ff" d="m275.75 187.18-19.712 14.635-9.3208-3.9782 20.15-14.084 8.8827 3.4275z" sodipodi:nodetypes="ccccc"/>
    <path id="path2473" style="fill-rule:evenodd;stroke:#000000;stroke-width:1.0228px;fill:#ff00ff" d="m154.49 308.06 19.109-14.653-12.138-6.3911-19.141 14.243 12.17 6.801z"/>
    <path id="path2475" style="fill-rule:evenodd;stroke:#000000;stroke-width:1.0228px;fill:#ff00ff" d="m141.09 300.66 15.134-11.302-10.992-5.9201-15.207 10.899 11.066 6.3233z"/>
    <path id="path2477" style="fill-rule:evenodd;stroke:#000000;stroke-width:1.0228px;fill:#ff00ff" d="m128.87 293.75 11.112-7.9973-10.506-5.7964-10.989 7.8929 10.382 5.9008z"/>
    <path id="path2497" style="fill-rule:evenodd;stroke:#000000;stroke-width:1.0228px;fill:#ff00ff" d="m130.58 279.26 9.0367-6.4179 10.446 5.4863-9.1355 6.6814-10.347-5.7498z"/>
    <path id="path2499" style="fill-rule:evenodd;stroke:#000000;stroke-width:1.0228px;fill:#ff00ff" d="m189.2 296.5 8.2448-6.5868-10.67-5.4394-7.9644 6.3808 10.39 5.6453z"/>
    <path id="path2501" style="fill-rule:evenodd;stroke:#000000;stroke-width:1.0228px;fill:#ff00ff" d="m174.57 292.62 8.4198-6.6028-11.902-6.3423-8.4881 6.3776 11.971 6.5675z"/>
    <path id="path2503" style="fill-rule:evenodd;stroke:#000000;stroke-width:1.0228px;fill:#ff00ff" d="m157.38 288.6 8.4504-6.4085-11.057-5.8506-8.4415 6.2844 11.048 5.9747z"/>
    <path id="path2505" d="m140.69 272.14 8.8038-6.0919 10.197 5.3852-8.6072 6.177-10.393-5.4704z" style="fill-rule:evenodd;stroke:#000000;stroke-width:1.0228px;fill:#ff00ff" sodipodi:nodetypes="ccccc"/>
    <path id="path2507" style="fill-rule:evenodd;stroke:#000000;stroke-width:1.0228px;fill:#ff00ff" d="m166.88 281.43 8.4833-6.5402-10.695-5.5269-8.9026 6.2844 11.114 5.7827z"/>
    <path id="path2509" style="fill-rule:evenodd;stroke:#000000;stroke-width:1.0228px;fill:#ff00ff" d="m150.58 265.32 8.5942-6.0686 10.15 5.2455-8.514 6.177-10.23-5.3539z"/>
    <path id="path2511" style="fill-rule:evenodd;stroke:#000000;stroke-width:1.0228px;fill:#ff00ff" d="m183.85 285.32 8.6174-6.7345-11.837-6.0788-8.4881 6.3776 11.707 6.4358z"/>
    <path id="path2513" style="fill-rule:evenodd;stroke:#000000;stroke-width:1.0228px;fill:#ff00ff" d="m198.58 289.16 8.5577-6.9985-10.504-5.3008-8.8054 6.7198 10.752 5.5795z"/>
    <path id="path2515" style="fill-rule:evenodd;stroke:#000000;stroke-width:1.0228px;fill:#ff00ff" d="m208.16 281.42 8.9199-7.1631-10.373-5.1691-9.036 6.9504 10.489 5.3819z"/>
    <path id="path2517" style="fill-rule:evenodd;stroke:#000000;stroke-width:1.0228px;fill:#ff00ff" d="m218.14 273.48 7.6262-5.9738-10.446-5.0647-7.6024 5.8542 10.423 5.1843z"/>
    <path id="path2519" style="fill-rule:evenodd;stroke:#000000;stroke-width:1.0228px;fill:#ff00ff" d="m226.74 266.67 8.5111-6.7656-10.307-4.9795-8.5725 6.6813 10.368 5.0638z"/>
    <path id="path2521" d="m236.06 259.12 8.393-6.6691-10.109-4.8398-8.4102 6.5222 10.126 4.9867z" style="fill-rule:evenodd;stroke:#000000;stroke-width:1.0228px;fill:#ff00ff" sodipodi:nodetypes="ccccc"/>
    <path id="path2523" style="fill-rule:evenodd;stroke:#000000;stroke-width:1.0228px;fill:#ff00ff" d="m245.38 251.73 7.7519-6.1615-10.085-4.6488-7.6737 5.976 10.007 4.8343z" sodipodi:nodetypes="ccccc"/>
    <path id="path2525" d="m254.07 244.8 6.8494-5.8115-9.6504-4.4991-7.2618 5.6806 10.063 4.63z" style="fill-rule:evenodd;stroke:#000000;stroke-width:1.0228px;fill:#ff00ff" sodipodi:nodetypes="ccccc"/>
    <path id="path2527" style="fill-rule:evenodd;stroke:#000000;stroke-width:1.0228px;fill:#ff00ff" d="m261.81 238.22 7.7716-6.1738-9.5516-4.3015-7.7229 5.977 9.503 4.4983z" sodipodi:nodetypes="ccccc"/>
    <path id="path2529" d="m270.54 231.27 7.5081-6.0091-9.0576-4.4333-7.8217 6.0428 9.3712 4.3995z" style="fill-rule:evenodd;stroke:#000000;stroke-width:1.0228px;fill:#ff00ff" sodipodi:nodetypes="ccccc"/>
    <path id="path2531" style="fill-rule:evenodd;stroke:#000000;stroke-width:1.0228px;fill:#ff00ff" d="m160.32 258.47 9.3394-6.5344 9.7311 5.0592-8.9332 6.7825-10.137-5.3073z"/>
    <path id="path2533" style="fill-rule:evenodd;stroke:#000000;stroke-width:1.0228px;fill:#ff00ff" d="m170.69 251.17 8.5942-6.0686 9.4516 5.1523-8.3743 5.8976-9.6716-4.9813z" sodipodi:nodetypes="ccccc"/>
    <path id="path2535" d="m180.27 244.39 8.9901-6.3015 9.453 5.0944-9.003 6.3634-9.44-5.1563z" style="fill-rule:evenodd;stroke:#000000;stroke-width:1.0228px;fill:#ff00ff" sodipodi:nodetypes="ccccc"/>
    <path id="path2537" style="fill-rule:evenodd;stroke:#000000;stroke-width:1.0228px;fill:#ff00ff" d="m190.27 237.37 7.8264-5.4405 9.8003 4.5049-8.147 6.0566-9.4796-5.121z" sodipodi:nodetypes="ccccc"/>
    <path id="path2539" d="m199.07 231.13 8.5476-5.9289 9.6845 4.4071-8.3743 6.1305-9.8579-4.6087z" style="fill-rule:evenodd;stroke:#000000;stroke-width:1.0228px;fill:#ff00ff" sodipodi:nodetypes="ccccc"/>
    <path id="path2541" style="fill-rule:evenodd;stroke:#000000;stroke-width:1.0228px;fill:#ff00ff" d="m208.62 224.51 8.4521-5.8976 9.6845 4.1975-8.4354 6.0796-9.7012-4.3795z" sodipodi:nodetypes="ccccc"/>
    <path id="path2543" d="m218.18 217.77 8.5942-6.0686 9.5448 4.2208-8.514 6.177-9.625-4.3292z" style="fill-rule:evenodd;stroke:#000000;stroke-width:1.0228px;fill:#ff00ff" sodipodi:nodetypes="ccccc"/>
    <path id="path2545" style="fill-rule:evenodd;stroke:#000000;stroke-width:1.0228px;fill:#ff00ff" d="m227.89 210.93 7.7092-5.4864 9.5681 4.1277-7.7455 5.5948-9.5318-4.2361z" sodipodi:nodetypes="ccccc"/>
    <path id="path2547" d="m236.65 204.72 9.0017-6.1618 9.4284 4.0112-8.712 6.34-9.7181-4.1895z" style="fill-rule:evenodd;stroke:#000000;stroke-width:1.0228px;fill:#ff00ff" sodipodi:nodetypes="ccccc"/>
    <path id="path2242" style="fill-rule:evenodd;stroke:#000000;stroke-width:1.0228px;fill:#ff00ff" d="m181.56 271.8 8.6154-6.449 11.775 6.0099-8.5621 6.5204-11.828-6.0813z"/>
    <path id="path2244" style="fill-rule:evenodd;stroke:#000000;stroke-width:1.0228px;fill:#ff00ff" d="m191.15 264.55 8.1976-6.0251 11.707 5.8292-8.1724 6.2772-11.732-6.0813z"/>
    <path id="path2246" style="fill-rule:evenodd;stroke:#000000;stroke-width:1.0228px;fill:#ff00ff" d="m200.35 257.77 8.3009-6.2149 11.54 5.6674-8.2043 6.4051-11.636-5.8576z"/>
    <path id="path2248" style="fill-rule:evenodd;stroke:#000000;stroke-width:1.0228px;fill:#ff00ff" d="m209.62 250.83 11.507 5.6414 7.521-5.7989-11.436-5.5318s-7.5591 5.7213-7.5911 5.6893z" sodipodi:nodetypes="ccccc"/>
    <path id="path2250" d="m218.11 244.32 11.507 5.6414 7.521-5.7989-11.436-5.5318s-7.5592 5.7213-7.5911 5.6893z" style="fill-rule:evenodd;stroke:#000000;stroke-width:1.0228px;fill:#ff00ff" sodipodi:nodetypes="ccccc"/>
    <path id="path2252" style="fill-rule:evenodd;stroke:#000000;stroke-width:1.0228px;fill:#ff00ff" d="m226.7 237.87 11.411 5.5455 8.0947-6.414-11.051-5.2044-8.4541 6.0729z" sodipodi:nodetypes="ccccc"/>
    <path id="path2254" d="m236.2 230.99 11.009 5.2798 7.9046-6.1505-11.267-4.8745-7.647 5.7453z" style="fill-rule:evenodd;stroke:#000000;stroke-width:1.0228px;fill:#ff00ff" sodipodi:nodetypes="ccccc"/>
    <path id="path2256" style="fill-rule:evenodd;stroke:#000000;stroke-width:1.0228px;fill:#ff00ff" d="m245.03 224.41 11.054 4.9182 7.4306-5.7085-11.075-4.7634-7.4103 5.5537z" sodipodi:nodetypes="ccccc"/>
    <path id="path2258" d="m253.45 218.1 10.988 4.769 7.5849-5.8629-10.982-4.5955-7.5911 5.6893z" style="fill-rule:evenodd;stroke:#000000;stroke-width:1.0228px;fill:#ff00ff" sodipodi:nodetypes="ccccc"/>
    <path id="path2260" style="fill-rule:evenodd;stroke:#000000;stroke-width:1.0228px;fill:#ff00ff" d="m262.06 211.65 10.941 4.6017 6.4362-4.9401-10.849-4.6052-6.5288 4.9435z" sodipodi:nodetypes="ccccc"/>
    <path id="path2262" d="m269.64 205.9 10.693 4.6922 5.939-4.6237-10.758-4.4921-5.8734 4.4237z" style="fill-rule:evenodd;stroke:#000000;stroke-width:1.0228px;fill:#ff00ff" sodipodi:nodetypes="ccccc"/>
    <path id="path2264" style="fill-rule:evenodd;stroke:#000000;stroke-width:1.0228px;fill:#ff00ff" d="m176.34 274.07 8.4833-6.5402-10.695-5.5269-8.9026 6.2844 11.114 5.7827z"/>
    <path id="path2266" style="fill-rule:evenodd;stroke:#000000;stroke-width:1.0228px;fill:#ff00ff" d="m186.06 266.66 8.7545-6.4498-10.966-5.6173-8.9026 6.2844 11.114 5.7827z"/>
    <path id="path2268" style="fill-rule:evenodd;stroke:#000000;stroke-width:1.0228px;fill:#ff00ff" d="m195.89 259.46 8.8449-6.4046-10.695-5.2105-8.6766 6.1036 10.527 5.5115z" sodipodi:nodetypes="ccccc"/>
    <path id="path2270" d="m205.69 252.21 9.1705-6.6681-10.423-5.1434-9.35 6.668 10.603 5.1435z" style="fill-rule:evenodd;stroke:#000000;stroke-width:1.0228px;fill:#ff00ff" sodipodi:nodetypes="ccccc"/>
    <path id="path2272" style="fill-rule:evenodd;stroke:#000000;stroke-width:1.0228px;fill:#ff00ff" d="m215.75 244.71 7.8053-5.817-10.281-4.9767-7.7351 5.6438 10.21 5.1499z" sodipodi:nodetypes="ccccc"/>
    <path id="path2274" d="m224.45 238.08 7.6019-5.4554-10.04-4.9845-7.6821 5.5612 10.12 4.8787z" style="fill-rule:evenodd;stroke:#000000;stroke-width:1.0228px;fill:#ff00ff" sodipodi:nodetypes="ccccc"/>
    <path id="path2276" style="fill-rule:evenodd;stroke:#000000;stroke-width:1.0228px;fill:#ff00ff" d="m233.17 231.83 7.4295-5.7046-9.7381-4.9315-7.7209 5.5767 10.03 5.0595z" sodipodi:nodetypes="ccccc"/>
    <path id="path2278" d="m241.78 225.53 7.6523-5.837-9.7181-4.6338-7.688 5.4534 9.7538 5.0175z" style="fill-rule:evenodd;stroke:#000000;stroke-width:1.0228px;fill:#ff00ff" sodipodi:nodetypes="ccccc"/>
    <path id="path2280" style="fill-rule:evenodd;stroke:#000000;stroke-width:1.0228px;fill:#ff00ff" d="m250.37 218.84 7.219-5.212-9.6536-4.3763-7.0816 4.9562 9.5162 4.6321z" sodipodi:nodetypes="ccccc"/>
    <path id="path2282" d="m258.65 212.86 6.3136-4.8225-9.4747-4.3065-6.5521 4.7928 9.7131 4.3363z" style="fill-rule:evenodd;stroke:#000000;stroke-width:1.0228px;fill:#ff00ff" sodipodi:nodetypes="ccccc"/>
    <path id="path2284" style="fill-rule:evenodd;stroke:#000000;stroke-width:1.0228px;fill:#ff00ff" d="m265.93 207.3 5.4548-4.2349-9.6103-3.8092-5.2412 3.7983 9.3967 4.2459z" sodipodi:nodetypes="ccccc"/>
    <path id="rect3291" style="opacity:.99720;fill:#808080" d="m292.01 228.7l5.5045-4.5838c0.5465-0.4551 0.39212-1.0956-0.34857-1.4383l-7.5952-3.5137c-0.78113-0.36136-1.8736-0.2786-2.4468 0.18787l-5.7752 4.6998c-0.58355 0.47488-0.39966 1.1404 0.40955 1.49l7.8659 3.3978c0.76685 0.33126 1.8298 0.22346 2.3858-0.23956"/>
    <path id="rect3293" style="opacity:.99720;fill:#808080" d="m224.5 266.9l-7.9498-3.8542c-0.68381-0.33152-1.6357-0.28825-2.1358 0.0969l-5.7856 4.4551c-0.50643 0.38998-0.3662 0.97695 0.31601 1.3163l7.9318 3.9452c0.69779 0.34708 1.6698 0.30627 2.1779-0.0917l5.8036-4.5462c0.50162-0.39295 0.34118-0.98238-0.35813-1.3214"/>
    <path id="rect3299" style="opacity:.99720;fill:#808080" d="m236.57 205.87l7.608 3.2821c0.54937 0.237 0.64097 0.68178 0.20429 0.99721l-6.1589 4.4488c-0.44231 0.31949-1.2399 0.3808-1.7872 0.13756l-7.5792-3.3683c-0.53444-0.23751-0.60942-0.68085-0.16921-0.99412l6.1301-4.3626c0.43465-0.30934 1.2156-0.37211 1.7522-0.14067"/>
    <path id="rect3301" style="opacity:.99720;fill:#808080" d="m200.52 259.11l9.3085 4.6349c0.67742 0.3373 0.85727 0.89117 0.40086 1.2417l-6.4982 4.9912c-0.47109 0.36185-1.3991 0.36966-2.0782 0.0176l-9.3285-4.8354c-0.65251-0.33823-0.79557-0.88991-0.3232-1.2371l6.5182-4.7908c0.45798-0.33661 1.3492-0.34662 2.0005-0.0223"/>
    <path id="rect3305" style="opacity:.99720;fill:#808080" d="m179.93 245.46l8.1964 4.4681c0.33907 0.18485 0.36328 0.50821 0.0549 0.72536l-7.2624 5.1146c-0.3076 0.21663-0.83404 0.24741-1.181 0.0687l-8.3871-4.3198c-0.36459-0.18778-0.40455-0.51868-0.0889-0.74158l7.4532-5.2629c0.31646-0.22348 0.85863-0.24672 1.215-0.0525"/>
    <path id="rect3309" style="opacity:.99720;fill:#808080" d="m190 313.9l-9.3066 7.8485c-0.47149 0.3976-1.2666 0.48069-1.782 0.1858l-10.321-5.9046c-0.51376-0.29391-0.5405-0.84615-0.0606-1.2377l9.4722-7.7298c0.46484-0.37933 1.2455-0.45247 1.751-0.16446l10.156 5.7859c0.50718 0.28895 0.54836 0.83125 0.0917 1.2164"/>
    <path id="rect3311" style="opacity:.99720;fill:#808080" d="m216.16 273.8l-8.5587-4.2652c-0.4967-0.24753-1.2409-0.1813-1.6701 0.14881l-7.4556 5.7348c-0.44632 0.3433-0.40262 0.82738 0.0995 1.085l8.6544 4.4407c0.51404 0.26377 1.2838 0.19088 1.7245-0.16303l7.3599-5.9103c0.42356-0.34013 0.35425-0.81756-0.15397-1.0708"/>
    <path id="rect3313" style="opacity:.99720;fill:#808080" d="m190.01 238.5l7.9469 4.2828c0.41945 0.22606 0.43879 0.63322 0.0431 0.91294l-7.5687 5.3495c-0.39889 0.28195-1.0575 0.32473-1.4764 0.0959l-7.936-4.3348c-0.41432-0.22632-0.42696-0.63327-0.0286-0.91248l7.5578-5.2975c0.39518-0.277 1.0471-0.32 1.462-0.0964"/>
    <path id="rect3317" style="opacity:.99720;fill:#808080" d="m158.11 306.77l17.542-13.429c1.2251-0.93789 2.6871-1.4222 3.2869-1.0924l8.134 4.4736c0.60438 0.33239 0.1397 1.3711-1.0505 2.3356l-17.046 13.814c-1.3378 1.0841-2.9396 1.6726-3.5809 1.3115l-8.6295-4.8584c-0.63609-0.35813-0.0316-1.5009 1.3447-2.5545"/>
    <path id="rect3319" style="opacity:.99720;fill:#808080" d="m181.64 285.29l-9.2355-4.9212c-0.72831-0.38809-1.7305-0.38656-2.2495 0.003l-6.5862 4.9486c-0.53461 0.40166-0.37747 1.0485 0.35482 1.4502l9.2884 5.0959c0.75364 0.41346 1.7894 0.41144 2.3199-0.005l6.5332-5.1233c0.51472-0.40365 0.324-1.05-0.42515-1.4491"/>
    <path id="rect3321" style="opacity:.99720;fill:#808080" d="m174.27 274.32l-8.5043-4.3948c-0.6051-0.31269-1.483-0.28833-1.9706 0.0559l-7.0779 4.9963c-0.52312 0.36925-0.44013 0.93106 0.18861 1.2582l8.8377 4.5982c0.63255 0.32912 1.5451 0.28341 2.0436-0.10094l6.7446-5.1997c0.46463-0.35821 0.34699-0.89871-0.26163-1.2132"/>
    <path id="rect3323" style="opacity:.99720;fill:#808080" d="m150.25 266.45l8.6738 4.5808c0.42123 0.22247 0.47847 0.60381 0.12792 0.85539l-7.3214 5.2543c-0.36174 0.2596-0.99896 0.28696-1.4283 0.061l-8.8411-4.6533c-0.4307-0.22669-0.47918-0.6156-0.10915-0.87163l7.4886-5.1819c0.35855-0.24809 0.987-0.26791 1.4096-0.0448"/>
    <path id="rect3325" style="opacity:.99720;fill:#808080" d="m209.42 297.64l-7.096 5.9671c-0.44992 0.37833-1.306 0.37892-1.9152 0.003l-9.2707-5.7237c-0.5492-0.33907-0.63898-0.89292-0.20492-1.2431l6.8522-5.5273c0.42107-0.33966 1.2114-0.36173 1.7755-0.0484l9.5146 5.284c0.62467 0.34693 0.78024 0.92219 0.34461 1.2885"/>
    <path id="rect3327" style="opacity:.99720;fill:#808080" d="m239.31 225.47l-7.1523-3.6221c-0.71741-0.36332-1.7405-0.33424-2.2956 0.0667l-5.6702 4.0955c-0.58083 0.41952-0.45513 1.0587 0.28379 1.4315l7.3664 3.716c0.73645 0.37151 1.7808 0.32376 2.3397-0.10537l5.4562-4.1895c0.53425-0.41022 0.38721-1.0307-0.32787-1.3928"/>
    <path id="rect3329" style="opacity:.99720;fill:#808080" d="m230.87 232.04l-7.6402-3.7932c-0.67328-0.33427-1.6273-0.3064-2.1375 0.0629l-5.8462 4.2322c-0.50687 0.36693-0.36737 0.92608 0.31127 1.2532l7.7013 3.7127c0.66127 0.3188 1.5963 0.28531 2.0979-0.0746l5.7852-4.1516c0.50485-0.36231 0.38433-0.91583-0.27166-1.2415"/>
    <path id="rect3331" style="opacity:.99720;fill:#808080" d="m280.2 226.09l8.8661 3.7952c0.55658 0.23825 0.6933 0.68477 0.3043 1.0003l-6.4456 5.2283c-0.39078 0.31699-1.1428 0.36811-1.6839 0.11553l-8.6193-4.023c-0.5024-0.23449-0.60276-0.66666-0.22698-0.96979l6.1987-5.0005c0.37414-0.30181 1.0898-0.3673 1.6066-0.14607"/>
    <path id="rect3333" style="opacity:.99720;fill:#808080" d="m203.79 252.6l-8.8686-4.3206c-0.49-0.23872-1.2092-0.20105-1.6146 0.0841l-7.1954 5.0616c-0.41523 0.29211-0.36299 0.73012 0.11908 0.98252l8.7289 4.5702c0.51383 0.26904 1.2702 0.23915 1.6936-0.0675l7.335-5.3112c0.41303-0.29908 0.32372-0.74487-0.19811-0.99909"/>
    <path id="rect3335" style="opacity:.99720;fill:#808080" d="m227.74 212.13l7.5896 3.3562c0.54493 0.24097 0.60055 0.71327 0.12359 1.0593l-6.7698 4.9116c-0.48928 0.35496-1.3266 0.44203-1.8761 0.19484l-7.6534-3.4424c-0.54269-0.24409-0.58112-0.72164-0.0873-1.0704l6.8336-4.8254c0.48151-0.34 1.3016-0.42184 1.8398-0.18382"/>
    <path id="rect3337" style="opacity:.99720;fill:#808080" d="m218.05 219.03l7.7005 3.3376c0.55788 0.24179 0.6289 0.70993 0.15738 1.0498l-6.7074 4.8342c-0.48582 0.35013-1.3285 0.42899-1.8875 0.17663l-7.7138-3.4823c-0.54201-0.24469-0.58508-0.71517-0.0984-1.0547l6.7206-4.6894c0.47259-0.32976 1.2873-0.40625 1.8285-0.17167"/>
    <path id="rect3339" style="opacity:.99720;fill:#808080" d="m246.28 198.82l8.1766 3.4786c0.34841 0.14822 0.37977 0.44897 0.0695 0.67479l-7.5547 5.4979c-0.33078 0.24072-0.88697 0.31027-1.2461 0.15544l-8.4279-3.6333c-0.35563-0.15331-0.36608-0.46545-0.0243-0.69936l7.806-5.3433c0.32067-0.21949 0.85596-0.27766 1.201-0.13084"/>
    <path id="rect3341" style="opacity:.99720;fill:#808080" d="m190.98 265.77l10.151 5.1813c0.45132 0.23036 0.55343 0.61488 0.22863 0.86224l-7.3816 5.6214c-0.32919 0.25069-0.95946 0.26491-1.4128 0.0318l-10.197-5.2428c-0.45008-0.23141-0.5455-0.61735-0.21427-0.8653l7.4275-5.5598c0.32682-0.24465 0.95043-0.25744 1.3985-0.0287"/>
    <path id="rect3343" style="opacity:.99720;fill:#808080" d="m208.35 225.53l8.2072 3.7348c0.41361 0.18823 0.4698 0.54277 0.12482 0.79531l-7.0964 5.195c-0.36292 0.26569-0.99513 0.32138-1.4163 0.12448l-8.354-3.9056c-0.41195-0.19258-0.44451-0.55473-0.0742-0.81159l7.2434-5.0242c0.35222-0.2443 0.96078-0.29238 1.3656-0.10816"/>
    <path id="rect3345" style="opacity:.99720;fill:#808080" d="m155.24 288.83l-9.0696-4.8848c-0.52398-0.28222-1.5202-0.0969-2.2365 0.41645l-12.547 8.9923c-0.75739 0.5428-0.94511 1.2232-0.41788 1.5244l9.1305 5.2175c0.54488 0.31135 1.5931 0.10775 2.3472-0.45543l12.486-9.3249c0.71244-0.53207 0.84818-1.1941 0.30722-1.4855"/>
    <path id="rect3349" style="opacity:.99720;fill:#808080" d="m140.14 273.12l9.36 4.9161c0.30837 0.16196 0.34835 0.44512 0.089 0.63479l-8.1862 5.9871c-0.26657 0.19497-0.72771 0.21514-1.0333 0.0453l-9.2715-5.1522c-0.29021-0.16128-0.31116-0.44175-0.0476-0.62896l8.0976-5.751c0.25662-0.18226 0.69871-0.20512 0.9918-0.0512"/>
    <path id="rect3351" style="opacity:.99720;fill:#808080" d="m164.65 281.57l-8.7257-4.6169c-0.6394-0.33831-1.5474-0.31714-2.037 0.0474l-6.6614 4.9592c-0.49649 0.36963-0.38288 0.94524 0.25597 1.2907l8.7186 4.7148c0.65187 0.3525 1.5778 0.33292 2.0749-0.044l6.6685-5.0571c0.49011-0.3717 0.3585-0.94889-0.29384-1.294"/>
    <path id="rect3353" style="opacity:.99720;fill:#808080" d="m191.1 277.88l-9.1833-4.7162c-0.71146-0.36538-1.6993-0.34465-2.2188 0.0457l-6.5862 4.9486c-0.53412 0.4013-0.40111 1.0349 0.30217 1.4216l9.0829 4.9931c0.75039 0.41251 1.7948 0.40407 2.3374-0.0199l6.6865-5.2255c0.52712-0.41195 0.33756-1.0578-0.42071-1.4473"/>
    <path id="rect3355" style="opacity:.99720;fill:#808080" d="m172.34 292.74l-9.6511-5.0818c-0.6796-0.35783-2.0777-0.0116-3.1388 0.77799l-15.219 11.325c-1.1115 0.82714-1.4615 1.8009-0.78036 2.1815l9.6765 5.4077c0.69999 0.39119 2.1607 0.0194 3.2708-0.83191l15.194-11.651c1.0589-0.81198 1.3462-1.7602 0.64832-2.1276"/>
    <path id="rect3357" style="opacity:.99720;fill:#808080" d="m170.38 252.31l8.2776 4.3035c0.40372 0.20988 0.44363 0.59543 0.0883 0.86524l-7.5979 5.7687c-0.38431 0.29178-1.0335 0.35014-1.4541 0.12992l-8.6232-4.5146c-0.41818-0.21895-0.43028-0.62221-0.0285-0.90329l7.9434-5.5576c0.37158-0.25997 0.99293-0.30059 1.3944-0.0919"/>
    <path id="rect3359" style="opacity:.99720;fill:#808080" d="m196.43 289.4l-8.7079-4.4391c-0.52802-0.26916-1.2788-0.22332-1.6848 0.10197l-6.5003 5.2078c-0.4051 0.32456-0.31849 0.81006 0.19567 1.0894l8.4791 4.6071c0.54431 0.29576 1.3214 0.26492 1.7408-0.0701l6.7291-5.3759c0.42032-0.3358 0.30731-0.83629-0.25171-1.1213"/>
    <path id="rect3361" style="opacity:.99720;fill:#808080" d="m199.45 305.95l-6.5723 5.4697c-0.66725 0.5553-1.886 0.61493-2.7357 0.12985l-8.7675-5.0054c-0.90739-0.51804-1.0686-1.3969-0.35818-1.9663l6.9937-5.6053c0.69047-0.5534 1.9438-0.56744 2.8071-0.0357l8.3461 5.1411c0.80928 0.49849 0.93589 1.3317 0.28666 1.872"/>
    <path id="rect3363" style="opacity:.99720;fill:#808080" d="m218.54 290l-6.366 5.3635c-0.55996 0.47177-1.6247 0.50649-2.3867 0.0768l-8.7917-4.9564c-0.76744-0.43266-0.92376-1.1584-0.35105-1.6264l6.5108-5.3194c0.56003-0.45756 1.6181-0.47996 2.3729-0.0512l8.6468 4.9124c0.74955 0.42584 0.91252 1.1393 0.3649 1.6007"/>
    <path id="rect3365" style="opacity:.99720;fill:#808080" d="m206.18 281.68l-8.6215-4.3507c-0.51554-0.26017-1.2707-0.20943-1.6951 0.11444l-7.2265 5.5149c-0.45029 0.34363-0.38977 0.84124 0.13773 1.115l8.8248 4.5794c0.5402 0.28033 1.3292 0.21713 1.767-0.1409l7.0232-5.7435c0.41227-0.33716 0.31795-0.82233-0.2096-1.0885"/>
    <path id="rect3367" style="opacity:.99720;fill:#808080" d="m160.04 259.69l8.4176 4.35c0.48258 0.24941 0.55129 0.68245 0.15337 0.97116l-7.0606 5.1226c-0.40725 0.29548-1.1273 0.32857-1.6137 0.074l-8.4841-4.44c-0.48105-0.25177-0.5368-0.68826-0.12574-0.97852l7.1271-5.0326c0.4017-0.28367 1.1088-0.3133 1.5861-0.0666"/>
    <path id="rect3369" style="opacity:.99720;fill:#808080" d="m193.68 259.63l-8.7199-4.4667c-0.61798-0.31654-1.5141-0.28948-2.0108 0.0611l-7.0787 4.9969c-0.51373 0.36264-0.42443 0.91728 0.20179 1.2431l8.8377 4.5982c0.63506 0.33042 1.5544 0.29636 2.0596-0.0759l6.961-5.1284c0.48832-0.35978 0.37586-0.90741-0.25067-1.2283"/>
    <path id="rect3371" style="opacity:.99720;fill:#808080" d="m183.73 266.97l-8.5043-4.3948c-0.60507-0.31269-1.483-0.28833-1.9707 0.0559l-7.0779 4.9963c-0.52311 0.36927-0.44009 0.93108 0.18862 1.2582l8.8377 4.5982c0.63257 0.32911 1.5451 0.28342 2.0436-0.10093l6.7446-5.1997c0.46463-0.35822 0.34699-0.89871-0.26164-1.2132"/>
    <path id="rect3373" style="opacity:.99720;fill:#808080" d="m273.86 243.61l6.9117-5.7264c0.28838-0.23891 0.19836-0.58094-0.20066-0.76676l-9.1595-4.2654c-0.3781-0.17607-0.91239-0.13359-1.199 0.0952l-6.8664 5.4802c-0.29581 0.23609-0.2321 0.57595 0.14395 0.76209l9.1142 4.5116c0.39725 0.19664 0.95784 0.15633 1.2557-0.0905"/>
    <path id="rect3375" style="opacity:.99720;fill:#808080" d="m255.39 201.53l-8.0355-3.4297c-0.35046-0.14957 0.0396-0.73946 0.86921-1.3193l17.364-12.137c0.7134-0.49864 1.5535-0.79408 1.8879-0.66505l7.6579 2.9549c0.34413 0.1328 0.0635 0.65407-0.63351 1.1715l-16.987 12.611c-0.81256 0.60326-1.7621 0.96752-2.1237 0.81321"/>
    <path id="rect3377" style="opacity:.99720;fill:#808080" d="m139.18 285.31l-8.9033-4.9121c-0.43907-0.24225-1.1656-0.1689-1.6294 0.16425l-9.3124 6.6889c-0.46479 0.33384-0.49001 0.80098-0.0561 1.0476l8.7984 5.0007c0.44351 0.25207 1.1793 0.18285 1.6493-0.15542l9.4173-6.7774c0.46904-0.33755 0.48498-0.80883 0.0362-1.0564"/>
    <path id="rect3379" style="fill:#808080" d="m297.15 195.5l-17.767-6.8959c-1.2174-0.47255-2.7617-0.45482-3.4434 0.0489l-11.882 8.7794c-0.71373 0.52733-0.85939 0.98068 0.52451 1.3659l6.7554 2.7608c1.0928 0.44661 1.0906 0.46973 2.0396-0.22179l1.2646-0.92155c0.27654-0.20152 1.1053-0.27965 1.9938 0.10321l9.1526 3.9434c1.0094 0.28095 1.8862 0.36648 2.456-0.0812l9.5218-7.4813c0.54833-0.43082 0.27891-1.0526-0.61575-1.3998" sodipodi:nodetypes="cccccssssccccc"/>
    <path id="rect3381" style="opacity:.99720;fill:#808080" d="m252.13 245.37l-8.4781-3.908c-0.43617-0.20105-1.0568-0.15228-1.3925 0.1092l-6.4511 5.0239c-0.34156 0.26602-0.26904 0.64829 0.16367 0.85734l8.4122 4.0639c0.4507 0.21773 1.0923 0.17233 1.4374-0.10198l6.5169-5.1798c0.33911-0.26954 0.24564-0.6552-0.20849-0.86454"/>
    <path id="rect3385" style="opacity:.99720;fill:#808080" d="m213.76 245.01l-8.2255-4.0588c-0.61287-0.30241-1.5421-0.23556-2.0835 0.15054l-7.3784 5.2619c-0.55087 0.39285-0.4925 0.95315 0.13095 1.2556l8.3671 4.0589c0.61519 0.29841 1.5454 0.22188 2.0857-0.17096l7.2367-5.262c0.53105-0.38615 0.47163-0.93674-0.13319-1.2352"/>
    <path id="rect3387" style="opacity:.99720;fill:#808080" d="m209.93 252.18l8.9542 4.3976c0.72431 0.35572 0.90544 0.95705 0.40399 1.3485l-6.366 4.9699c-0.51696 0.4036-1.523 0.43265-2.2536 0.0649l-9.0291-4.5451c-0.71384-0.35935-0.86581-0.96403-0.34287-1.3556l6.4409-4.8223c0.50746-0.37994 1.4844-0.40565 2.1924-0.0579"/>
    <path id="rect3389" style="opacity:.99720;fill:#808080" d="m199.03 232.36l7.7884 3.5801c0.59426 0.27316 0.71648 0.76271 0.2675 1.0965l-6.4775 4.8154c-0.47586 0.35378-1.3281 0.38688-1.9042 0.0757l-7.5332-4.0696c-0.50176-0.27106-0.53405-0.74363-0.0779-1.0607l6.2227-4.3257c0.43227-0.3005 1.1945-0.35075 1.7144-0.11175"/>
    <path id="rect3391" style="opacity:.99720;fill:#808080" d="m289.62 215.84l17.878-14.444c0.83532-0.67485 1.1928-1.3389 0.80516-1.4907l-7.7347-3.0296c-0.36516-0.14303-1.3196 0.26073-2.1434 0.90699l-17.609 13.813c-0.89041 0.69849-1.327 1.4012-0.97503 1.5738l7.4653 3.6602c0.37458 0.18366 1.4082-0.25887 2.3135-0.99024"/>
    <path id="path13125" style="opacity:.99720;fill:#808080" d="m248.1 219.06l-7.1364-3.4028c-0.69304-0.33045-1.6893-0.2823-2.2396 0.10805l-5.6459 4.0048c-0.58095 0.41209-0.49425 1.0316 0.20059 1.3891l7.1625 3.6845c0.74053 0.38094 1.8081 0.33211 2.387-0.10944l5.6196-4.2865c0.54715-0.41735 0.3892-1.0362-0.34782-1.3877"/>
    <path id="path13127" style="opacity:.99720;fill:#808080" d="m234.16 259.38l-8.1334-3.9295c-0.59947-0.28961-1.4811-0.21148-1.9775 0.17545l-6.7648 5.2724c-0.50501 0.3936-0.42678 0.94776 0.17624 1.2423l8.1819 3.996c0.60818 0.29703 1.5022 0.21508 2.0036-0.1835l6.7163-5.3389c0.49291-0.3918 0.40232-0.94215-0.20224-1.2342"/>
    <path id="path13129" style="opacity:.99720;fill:#808080" d="m230.47 249.31l5.8359-4.4997c0.46229-0.35645 0.25828-0.92152-0.45622-1.2671l-8.8741-4.2924c-0.70503-0.34101-1.6473-0.3341-2.114 0.0156l-5.8903 4.4146c-0.47559 0.35644-0.28847 0.92349 0.42082 1.2712l8.9285 4.3775c0.71894 0.35247 1.6781 0.34359 2.1493-0.0197"/>
    <path id="path13131" style="opacity:.99720;fill:#808080" d="m239.23 242.53l5.944-4.7098c0.57422-0.455 0.3694-1.1321-0.45415-1.5199l-8.1166-3.8224c-0.80225-0.3778-1.9271-0.33625-2.5271 0.0948l-6.2079 4.4594c-0.64415 0.4627-0.50083 1.1606 0.32702 1.5629l8.3804 4.0728c0.85082 0.41349 2.0372 0.3511 2.6543-0.13788"/>
    <path id="path13133" style="opacity:.99720;fill:#808080" d="m259.91 238.52l-7.6154-3.5504c-0.5668-0.26425-1.353-0.21933-1.764 0.10213l-5.7298 4.4822c-0.43772 0.34238-0.31523 0.83827 0.27592 1.1103l7.9409 3.6537c0.58439 0.26888 1.3881 0.20214 1.8009-0.14807l5.4044-4.5855c0.3877-0.32894 0.24766-0.80299-0.3129-1.0643"/>
    <path id="path13135" style="opacity:.99720;fill:#808080" d="m268.49 231.55l-7.4112-3.3376c-0.58165-0.26194-1.4298-0.1774-1.9038 0.18943l-5.9925 4.6378c-0.48462 0.37505-0.41074 0.89735 0.16777 1.1712l7.3735 3.4903c0.60112 0.28456 1.4796 0.20181 1.9674-0.18569l6.0303-4.7905c0.47685-0.37882 0.37261-0.9029-0.23144-1.1749"/>
    <path id="path14377" style="opacity:.99720;fill:#808080" d="m248.27 235.44l5.8055-4.5172c0.57403-0.44665 0.33291-1.1093-0.53298-1.484l-8.2723-3.579c-0.79271-0.34296-1.8729-0.28164-2.4286 0.13587l-5.6164 4.2196c-0.56926 0.42769-0.40978 1.0694 0.36427 1.4406l8.0831 3.8765c0.84669 0.40603 2.0085 0.36576 2.5973-0.0924"/>
    <path id="path14379" style="opacity:.99720;fill:#808080" d="m221.92 255.86l5.935-4.5761c0.43507-0.33544 0.24302-0.86726-0.42948-1.1926l-9.0248-4.3653c-0.66349-0.32094-1.5503-0.31444-1.9895 0.0147l-5.9904 4.4896c-0.44766 0.33552-0.27157 0.86919 0.39594 1.1965l9.0802 4.4518c0.67668 0.33176 1.5794 0.32342 2.023-0.0186"/>
    <path id="path14381" style="opacity:.99720;fill:#808080" d="m243.3 251.91l-7.8441-3.7554c-0.62062-0.29713-1.5348-0.21394-2.0514 0.18664l-6.5258 5.0609c-0.52739 0.40899-0.45285 0.98478 0.16874 1.2909l7.8574 3.8694c0.63535 0.31288 1.572 0.22794 2.0983-0.19034l6.5125-5.1748c0.51541-0.40955 0.41846-0.98359-0.21571-1.2872"/>
    <path id="path14383" style="opacity:.99720;fill:#808080" d="m222.17 238.22l-7.5503-3.6551c-0.74304-0.35969-1.7935-0.31724-2.358 0.0947l-5.6811 4.1452c-0.57331 0.41831-0.44316 1.0542 0.29469 1.4264l7.4987 3.7822c0.76432 0.38551 1.8479 0.34917 2.4265-0.0821l5.7327-4.2723c0.56962-0.42451 0.40632-1.0666-0.36311-1.439"/>
    <path id="path14385" style="opacity:.99720;fill:#808080" d="m271.16 219.13l5.9472-4.6251c0.58779-0.45711 1.5838-0.5702 2.2353-0.25417l6.5533 3.179c0.6611 0.3207 0.72612 0.95398 0.14372 1.4205l-5.8936 4.7208c-0.59812 0.47911-1.618 0.59934-2.2846 0.26893l-6.6069-3.2748c-0.65672-0.32553-0.69787-0.96593-0.0944-1.4353"/>
    <path id="path20314" style="opacity:.99720;fill:#808080" d="m263.72 207.47l-6.9588-3.1629c-0.70251-0.31931-1.6502-0.29775-2.1251 0.0496l-4.8121 3.52c-0.48904 0.35772-0.30304 0.90566 0.41727 1.2272l7.1339 3.1848c0.70857 0.31634 1.6585 0.28023 2.1297-0.0797l4.637-3.5419c0.45766-0.34956 0.26943-0.88295-0.42184-1.1972"/>
    <path id="path20316" style="opacity:.99720;fill:#808080" d="m281.13 209.97l4.3619-3.3959c0.43262-0.33682 0.1238-0.88173-0.68827-1.2208l-7.9008-3.299c-0.77094-0.32191-1.733-0.32084-2.161 0.002l-4.3138 3.249c-0.43604 0.3284-0.17356 0.86266 0.59246 1.1988l7.8526 3.4458c0.80735 0.35428 1.8158 0.36387 2.2568 0.0205"/>
    <path id="path20318" style="opacity:.99720;fill:#808080" d="m273.86 215.59l4.7272-3.6283c0.47141-0.36183 0.2116-0.92421-0.5828-1.2614l-7.9681-3.3823c-0.80152-0.34025-1.832-0.32307-2.3102 0.039l-4.7952 3.6308c-0.48223 0.36512-0.21946 0.93321 0.58892 1.2732l8.0361 3.3798c0.80118 0.33695 1.8287 0.31404 2.304-0.0508"/>
    <path id="path20320" style="opacity:.99720;fill:#808080" d="m269.84 202.61l-7.0528-2.7956c-0.66067-0.26186-1.4904-0.25052-1.8686 0.0235l-3.8492 2.7896c-0.39296 0.28477-0.19674 0.74682 0.44814 1.0382l6.8958 3.1158c0.73981 0.33427 1.6734 0.34963 2.083 0.0316l4.0061-3.1102c0.39292-0.30505 0.0931-0.79361-0.66234-1.093"/>
    <path id="path20322" style="opacity:.99720;fill:#808080" d="m256.26 213.03l-7.0891-3.2137c-0.68865-0.31219-1.6543-0.27259-2.1694 0.0879l-5.2011 3.64c-0.52667 0.3686-0.40785 0.93046 0.27073 1.2608l6.9882 3.4015c0.72179 0.35133 1.7391 0.32286 2.2762-0.0649l5.302-3.8279c0.52489-0.37896 0.35442-0.95194-0.37748-1.2837"/>
    <path id="path20324" style="opacity:.99720;fill:#808080" d="m276.87 224.68l-6.6522-3.256c-0.67638-0.33106-1.6775-0.24659-2.2442 0.1913l-5.7446 4.4381c-0.58393 0.45112-0.49018 1.0804 0.20982 1.4091l6.8826 3.2312c0.67866 0.3186 1.6759 0.21255 2.2362-0.23592l5.5142-4.4133c0.5442-0.43557 0.45435-1.0433-0.20178-1.3644"/>
    <path id="path20326" style="opacity:.99720;fill:#808080" d="m257.08 228.56l5.4575-4.1927c0.54186-0.41627 0.31029-1.0379-0.51644-1.3935l-8.1338-3.4984c-0.80258-0.34519-1.8816-0.29678-2.4221 0.10827l-5.4426 4.079c-0.54965 0.41194-0.34952 1.0302 0.45144 1.3866l8.1189 3.6121c0.82532 0.36719 1.9358 0.32212 2.4871-0.10137"/>
    <path id="path21282" style="opacity:.99720;fill:#808080" d="m265.46 222.08l5.5708-4.306c0.55169-0.42643 0.33313-1.0461-0.48698-1.3893l-8.0655-3.3751c-0.79551-0.3329-1.8782-0.2676-2.4304 0.14631l-5.5753 4.1785c-0.56448 0.42306-0.38069 1.0416 0.4151 1.387l8.07 3.5026c0.82074 0.35622 1.9382 0.29202 2.5023-0.14402"/>
    <g id="g5349" transform="matrix(1.0228 0 0 1.0228 -16.998 -7.5528)">
      <path id="path3281" style="opacity:.99720;fill:#4d4d4d" d="m200.53 313.05l-7.4956 6.3212c-0.37973 0.32023-1.0201 0.38715-1.4352 0.14965l-8.3126-4.7555c-0.41378-0.23672-0.43531-0.68149-0.0488-0.99687l7.6289-6.2256c0.37437-0.30551 1.0031-0.36442 1.4103-0.13246l8.1793 4.66c0.40847 0.23272 0.44164 0.66949 0.0738 0.97969"/>
      <path id="path3283" style="opacity:.99720;fill:#4d4d4d" d="m172.42 306.04l15.61-11.95c1.0902-0.83462 2.3913-1.2656 2.925-0.97211l7.2384 3.981c0.53782 0.2958 0.12431 1.2202-0.93486 2.0785l-15.17 12.293c-1.1905 0.96474-2.6159 1.4884-3.1866 1.1671l-7.6793-4.3235c-0.56606-0.3187-0.0281-1.3356 1.1966-2.2732"/>
      <path id="path3285" style="opacity:.99720;fill:#4d4d4d" d="m183.72 293.09l-8.4971-4.4742c-0.59833-0.31506-1.8292-0.0102-2.7634 0.68496l-13.399 9.9709c-0.97864 0.72825-1.2867 1.5856-0.68705 1.9207l8.5195 4.7611c0.61628 0.34441 1.9024 0.017 2.8797-0.73243l13.377-10.258c0.93228-0.71489 1.1852-1.5497 0.5708-1.8732"/>
      <path id="path3287" style="opacity:.99720;fill:#4d4d4d" d="m166.83 289.13l-7.6963-4.1451c-0.44463-0.23948-1.29-0.0822-1.8979 0.35339l-10.647 7.6307c-0.64271 0.46062-0.802 1.038-0.35461 1.2936l7.748 4.4274c0.46238 0.26421 1.3519 0.0914 1.9918-0.38647l10.596-7.913c0.60457-0.4515 0.71975-1.0133 0.2607-1.2606"/>
      <path id="path3289" style="opacity:.99720;fill:#4d4d4d" d="m151.36 285.66l-7.5121-4.1446c-0.37047-0.2044-0.98348-0.14252-1.3748 0.13858l-7.8573 5.6437c-0.39216 0.28168-0.41344 0.67583-0.0473 0.88391l7.4236 4.2193c0.37421 0.21268 0.99504 0.15428 1.3916-0.13113l7.9458-5.7184c0.39575-0.28481 0.4092-0.68244 0.0305-0.89135"/>
      <path id="path3291" style="opacity:.99720;fill:#4d4d4d" d="m210.7 305.78l-5.7721 4.8037c-0.58601 0.4877-1.6564 0.54005-2.4026 0.11404l-7.7-4.396c-0.79691-0.45497-0.93851-1.2268-0.31457-1.7269l6.1422-4.9228c0.60641-0.48602 1.7072-0.49835 2.4654-0.0313l7.33 4.5151c0.71075 0.43782 0.82194 1.1696 0.25176 1.6441"/>
      <path id="path3293" style="opacity:.99720;fill:#4d4d4d" d="m220.37 297.65l-6.1686 5.1872c-0.39111 0.32888-1.1353 0.32939-1.6649 0.002l-8.059-4.9756c-0.47744-0.29476-0.55548-0.77623-0.17816-1.0806l5.9566-4.8049c0.36603-0.29525 1.053-0.31445 1.5435-0.0421l8.271 4.5934c0.54303 0.30158 0.67826 0.80166 0.29956 1.1201"/>
      <path id="path3295" style="opacity:.99720;fill:#4d4d4d" d="m229.28 290.15l-5.5074 4.6401c-0.48443 0.40815-1.4055 0.43818-2.0648 0.0665l-7.6059-4.288c-0.66393-0.3743-0.79918-1.0022-0.3037-1.407l5.6327-4.602c0.48451-0.39585 1.3999-0.41523 2.0528-0.0443l7.4806 4.2499c0.64845 0.3684 0.78943 0.98564 0.31567 1.3848"/>
      <path id="path3297" style="opacity:.99720;fill:#4d4d4d" d="m207.64 289.76l-7.4321-3.7887c-0.45065-0.22973-1.0914-0.1906-1.4379 0.087l-5.548 4.4448c-0.34575 0.277-0.27182 0.69137 0.167 0.92981l7.2368 3.9321c0.46457 0.25242 1.1278 0.2261 1.4857-0.0598l5.7432-4.5883c0.35874-0.2866 0.26228-0.71377-0.21484-0.95699"/>
      <path id="path3299" style="opacity:.99720;fill:#4d4d4d" d="m193.31 285.78l-8.0849-4.3081c-0.63757-0.33973-1.5149-0.3384-1.9693 0.003l-5.7656 4.332c-0.468 0.35163-0.33045 0.91785 0.31062 1.2696l8.1312 4.4611c0.65975 0.36196 1.5665 0.36018 2.0309-0.004l5.7192-4.485c0.4506-0.35336 0.28364-0.91915-0.37218-1.2686"/>
      <path id="path3301" style="opacity:.99720;fill:#4d4d4d" d="m153.66 274.41l8.0997 4.2542c0.26685 0.14015 0.30146 0.38518 0.077 0.54931l-7.0839 5.181c-0.23068 0.16871-0.62972 0.18617-0.89413 0.0392l-8.0231-4.4584c-0.25114-0.13956-0.26926-0.38227-0.0412-0.54426l7.0073-4.9767c0.22207-0.15772 0.60463-0.1775 0.85826-0.0443"/>
      <path id="path3303" style="opacity:.99720;fill:#4d4d4d" d="m176.68 282.15l-7.5926-4.0174c-0.55638-0.29439-1.3465-0.27597-1.7725 0.0412l-5.7964 4.3152c-0.43203 0.32163-0.33316 0.8225 0.22272 1.1231l7.5865 4.1025c0.56722 0.30674 1.373 0.2897 1.8055-0.0383l5.8025-4.4004c0.42648-0.32342 0.31195-0.82567-0.25568-1.126"/>
      <path id="path3305" style="opacity:.99720;fill:#4d4d4d" d="m186.06 275.08l-7.3874-3.8176c-0.52562-0.27162-1.2882-0.25045-1.7118 0.0486l-6.1483 4.3401c-0.45441 0.32077-0.38232 0.80878 0.16383 1.093l7.677 3.9943c0.54948 0.28589 1.3422 0.2462 1.7752-0.0877l5.8587-4.5168c0.40361-0.31117 0.30142-0.78067-0.22727-1.0539"/>
      <path id="path3307" style="opacity:.99720;fill:#4d4d4d" d="m163.52 267.88l7.6486 4.0394c0.37144 0.19617 0.42191 0.53244 0.1128 0.75428l-6.4561 4.6333c-0.31899 0.22892-0.88089 0.25306-1.2595 0.0538l-7.7961-4.1033c-0.37979-0.19989-0.42253-0.54283-0.0962-0.76861l6.6035-4.5694c0.31617-0.21877 0.87034-0.23625 1.2429-0.0395"/>
      <path id="path3309" style="opacity:.99720;fill:#4d4d4d" d="m173.08 261.27l7.339 3.7927c0.42075 0.21744 0.48067 0.595 0.13372 0.84671l-6.1559 4.4662c-0.35507 0.25761-0.98286 0.28646-1.407 0.0645l-7.397-3.8711c-0.41941-0.21949-0.46802-0.60006-0.10963-0.85313l6.2138-4.3878c0.35024-0.24731 0.96673-0.27315 1.3829-0.0581"/>
      <path id="path3311" style="opacity:.99720;fill:#4d4d4d" d="m183.16 254.06l7.383 3.8384c0.36009 0.18721 0.3957 0.53108 0.0787 0.77174l-6.7768 5.1452c-0.34277 0.26026-0.92176 0.31231-1.2969 0.11589l-7.6912-4.0267c-0.373-0.19528-0.38379-0.55496-0.0255-0.80566l7.0849-4.957c0.33143-0.23188 0.88562-0.26811 1.2437-0.0819"/>
      <path id="path3313" style="opacity:.99720;fill:#4d4d4d" d="m195.51 268l-7.5861-3.9203c-0.53974-0.27892-1.3229-0.2572-1.7579 0.0499l-6.3137 4.4569c-0.46664 0.3294-0.39258 0.83056 0.16824 1.1224l7.8835 4.1017c0.56426 0.29358 1.3783 0.25282 1.823-0.09l6.0163-4.6383c0.41447-0.31954 0.30952-0.80167-0.23339-1.0822"/>
      <path id="path3315" style="opacity:.99720;fill:#4d4d4d" d="m202.55 278.56l-8.0295-4.1237c-0.62206-0.31947-1.4858-0.30134-1.94 0.0399l-5.7587 4.3268c-0.46701 0.3509-0.35072 0.90491 0.26422 1.243l7.9418 4.3658c0.65611 0.36068 1.5693 0.3533 2.0437-0.0174l5.8465-4.569c0.4609-0.36019 0.29516-0.92493-0.36784-1.2654"/>
      <path id="path3317" style="opacity:.99720;fill:#4d4d4d" d="m217.28 282.31l-7.5147-3.7922c-0.44937-0.22677-1.1076-0.18254-1.4775 0.0997l-6.2988 4.8069c-0.39248 0.29953-0.33974 0.73325 0.12005 0.97184l7.6919 3.9915c0.47086 0.24434 1.1586 0.18926 1.5402-0.12281l6.1216-5.0062c0.35935-0.29387 0.27714-0.71676-0.18268-0.9488"/>
      <path id="path5259" style="fill:#4d4d4d" d="m223.63 280.97l47.572-38.162c0.56801-0.45177 1.7401-0.46114 2.6309-0.0214l6.3279 3.1045c0.90416 0.44636 1.1834 1.178 0.62315 1.6409l-46.853 39.255c-0.69701 0.5759-2.0362 0.60505-2.999 0.0648l-6.8694-3.9098c-0.94682-0.53132-1.1385-1.411-0.43339-1.9719" sodipodi:nodetypes="cccccccccc"/>
      <path id="path5261" style="opacity:.99720;fill:#4d4d4d" d="m227.04 274.62l-7.4641-3.7197c-0.43317-0.21586-1.0822-0.15811-1.4565 0.12978l-6.5021 5.0013c-0.38923 0.2994-0.35111 0.72157 0.0868 0.94626l7.5475 3.8728c0.44828 0.23002 1.1196 0.16646 1.504-0.14218l6.4186-5.1544c0.36938-0.29663 0.30895-0.71299-0.13426-0.93386"/>
      <path id="path5263" style="opacity:.99720;fill:#4d4d4d" d="m192.52 247.36l7.2636 3.9596c0.30048 0.1638 0.32193 0.45036 0.0487 0.6428l-6.436 4.5325c-0.2726 0.19198-0.73911 0.21926-1.0466 0.0609l-7.4326-3.8282c-0.32311-0.16641-0.35852-0.45965-0.0788-0.65719l6.605-4.664c0.28044-0.19802 0.76091-0.21862 1.0767-0.0465"/>
      <path id="path5265" style="opacity:.99720;fill:#4d4d4d" d="m204.96 260.68l-7.5067-3.8452c-0.532-0.2725-1.3034-0.24921-1.731 0.0526l-6.0938 4.3017c-0.44225 0.31219-0.36539 0.78966 0.17371 1.0702l7.608 3.9584c0.54671 0.28444 1.3381 0.25512 1.7731-0.0653l5.9925-4.4149c0.42039-0.30972 0.32357-0.78115-0.21578-1.0574"/>
      <path id="path5267" style="opacity:.99720;fill:#4d4d4d" d="m203.43 267.21l8.806 4.4946c0.3915 0.19982 0.48008 0.53339 0.19833 0.74795l-6.4032 4.8763c-0.28557 0.21747-0.8323 0.2298-1.2256 0.0276l-8.8458-4.548c-0.39042-0.20073-0.47321-0.53554-0.18587-0.75062l6.4431-4.823c0.28351-0.21223 0.82446-0.22332 1.2131-0.0249"/>
      <path id="path5269" style="opacity:.99720;fill:#4d4d4d" d="m212.73 260.69l8.0889 4.0276c0.58866 0.29311 0.74495 0.77441 0.34834 1.079l-5.6468 4.3373c-0.40937 0.31444-1.2158 0.32122-1.8059 0.0153l-8.1063-4.2018c-0.56702-0.29391-0.69134-0.77331-0.28086-1.075l5.6642-4.1631c0.39798-0.29251 1.1724-0.3012 1.7384-0.0194"/>
      <path id="path5271" style="opacity:.99720;fill:#4d4d4d" d="m235.38 267.95l-7.0201-3.4035c-0.60385-0.29275-1.4444-0.25454-1.886 0.0855l-5.109 3.9341c-0.44721 0.34437-0.32337 0.86269 0.27906 1.1623l7.0042 3.4839c0.61619 0.30648 1.4746 0.27045 1.9232-0.081l5.1249-4.0145c0.44296-0.34698 0.30128-0.86749-0.31625-1.1669"/>
      <path id="path5273" style="opacity:.99720;fill:#4d4d4d" d="m202.34 240.55l7.063 3.8064c0.37281 0.20091 0.39 0.56279 0.0383 0.81139l-6.7268 4.7545c-0.35452 0.25058-0.93989 0.2886-1.3122 0.0853l-7.0533-3.8526c-0.36824-0.20115-0.37946-0.56284-0.0255-0.81098l6.7171-4.7083c0.35122-0.24619 0.93061-0.28439 1.2994-0.0857"/>
      <path id="path5275" style="opacity:.99720;fill:#4d4d4d" d="m214.96 253.89l-7.7478-3.7746c-0.42807-0.20855-1.0564-0.17563-1.4105 0.0735l-6.286 4.4219c-0.36275 0.25518-0.31711 0.63783 0.10404 0.85833l7.6258 3.9926c0.4489 0.23503 1.1096 0.20893 1.4796-0.0589l6.408-4.64c0.36083-0.26128 0.28281-0.65073-0.17307-0.87283"/>
      <path id="path5277" style="opacity:.99720;fill:#4d4d4d" d="m221.9 253.92l7.8428 3.8517c0.6344 0.31157 0.79305 0.83827 0.35384 1.1812l-5.5758 4.353c-0.4528 0.35349-1.334 0.37895-1.9738 0.0569l-7.9084-3.981c-0.62524-0.31474-0.75835-0.84437-0.30032-1.1873l5.6414-4.2238c0.44447-0.33277 1.3001-0.3553 1.9203-0.0507"/>
      <path id="path5279" style="opacity:.99720;fill:#4d4d4d" d="m244.76 260.59l-7.1706-3.4644c-0.52851-0.25534-1.3058-0.18645-1.7435 0.15468l-5.9641 4.6483c-0.44522 0.34699-0.37626 0.83557 0.15538 1.0952l7.2134 3.523c0.5362 0.26188 1.3244 0.18963 1.7664-0.16177l5.9213-4.7069c0.43454-0.34542 0.35468-0.83062-0.17831-1.0881"/>
      <path id="path5281" style="opacity:.99720;fill:#4d4d4d" d="m233.29 256.42l5.1613-3.9795c0.37834-0.29172 0.21133-0.75422-0.37351-1.0371l-7.8484-3.7962c-0.577-0.2791-1.3482-0.27345-1.7301 0.0128l-5.2094 3.9043c-0.38931 0.29177-0.23617 0.75588 0.34432 1.0405l7.8964 3.8715c0.58848 0.28851 1.3736 0.28125 1.7593-0.0162"/>
      <path id="path5283" style="opacity:.99720;fill:#4d4d4d" d="m224.85 246.56l-7.3215-3.6127c-0.54551-0.26918-1.3726-0.20968-1.8545 0.134l-6.5675 4.6836c-0.49034 0.34968-0.43839 0.8484 0.11655 1.1176l7.4476 3.6128c0.54759 0.26563 1.3756 0.1975 1.8565-0.15217l6.4414-4.6837c0.4727-0.34371 0.41979-0.8338-0.11855-1.0994"/>
      <path id="path5285" style="opacity:.99720;fill:#4d4d4d" d="m211.22 234.55l6.9216 3.1817c0.52813 0.24277 0.63674 0.67783 0.23773 0.97446l-5.7567 4.2796c-0.42291 0.3144-1.1803 0.34382-1.6923 0.0673l-6.6949-3.6167c-0.44594-0.2409-0.47463-0.66088-0.0693-0.94267l5.5302-3.8443c0.38417-0.26706 1.0615-0.31171 1.5236-0.0993"/>
      <path id="path5287" style="opacity:.99720;fill:#4d4d4d" d="m233.16 239.94l-6.7119-3.2492c-0.66052-0.31976-1.5943-0.28202-2.0962 0.0842l-5.0503 3.6849c-0.50966 0.37186-0.39395 0.93719 0.26195 1.268l6.6661 3.3622c0.67945 0.3427 1.6427 0.3104 2.1571-0.0729l5.0961-3.7979c0.50635-0.37736 0.36119-0.94812-0.32281-1.2792"/>
      <path id="path5289" style="opacity:.99720;fill:#4d4d4d" d="m220.3 227.88l7.1605 3.2585c0.36087 0.16422 0.40989 0.47355 0.10892 0.69388l-6.1915 4.5325c-0.31664 0.23179-0.86822 0.28038-1.2357 0.1086l-7.2887-3.4076c-0.35942-0.16803-0.38782-0.484-0.0647-0.7081l6.3197-4.3835c0.3073-0.21315 0.83826-0.25511 1.1915-0.0944"/>
      <path id="path5291" style="opacity:.99720;fill:#4d4d4d" d="m253.83 253.35l-7.0258-3.3636c-0.55587-0.26612-1.3747-0.19162-1.8373 0.16717l-5.845 4.5329c-0.47236 0.36632-0.4056 0.88205 0.15114 1.1562l7.0377 3.4657c0.56905 0.28023 1.408 0.20415 1.8794-0.17048l5.8331-4.635c0.46164-0.36682 0.37481-0.88097-0.19321-1.1529"/>
      <path id="path5293" style="opacity:.99720;fill:#4d4d4d" d="m241.69 250.19l5.17-3.9862c0.40954-0.31577 0.22881-0.81636-0.40415-1.1225l-7.8615-3.8026c-0.62457-0.3021-1.4593-0.29598-1.8727 0.0138l-5.2181 3.9108c-0.42133 0.31577-0.25556 0.8181 0.37279 1.1262l7.9096 3.8779c0.63688 0.31225 1.4866 0.30439 1.9041-0.0175"/>
      <path id="path5295" style="opacity:.99720;fill:#4d4d4d" d="m262.3 246.87l-7.4174-3.4191c-0.3816-0.1759-0.92456-0.13323-1.2183 0.0955l-5.644 4.3953c-0.29883 0.23272-0.23537 0.56717 0.1432 0.75006l7.3598 3.5555c0.39431 0.19049 0.9556 0.15077 1.2575-0.0892l5.7015-4.5317c0.2967-0.23582 0.21492-0.57323-0.1824-0.75637"/>
      <path id="path5297" style="opacity:.99720;fill:#4d4d4d" d="m269.92 240.18l-6.6117-3.0825c-0.4921-0.22942-1.1747-0.19042-1.5315 0.0887l-4.9746 3.8914c-0.38001 0.29727-0.27368 0.72778 0.23956 0.96393l6.8943 3.1722c0.50736 0.23344 1.2052 0.17549 1.5635-0.12856l4.6921-3.9811c0.3366-0.28559 0.21501-0.69716-0.27166-0.92405"/>
      <path id="path5299" style="opacity:.99720;fill:#4d4d4d" d="m284.16 244.26l5.9308-4.9137c0.24745-0.20501 0.17021-0.49849-0.17219-0.65794l-7.8596-3.66c-0.32444-0.15109-0.7829-0.11464-1.0288 0.0817l-5.8919 4.7024c-0.25383 0.20259-0.19915 0.49421 0.12353 0.65393l7.8207 3.8713c0.34087 0.16874 0.82189 0.13415 1.0775-0.0776"/>
      <path id="path5301" style="opacity:.99720;fill:#4d4d4d" d="m290.63 228.42l7.8421 3.3568c0.49227 0.21072 0.61321 0.60566 0.26913 0.88475l-5.7011 4.6244c-0.34564 0.28037-1.0108 0.32559-1.4894 0.1022l-7.6237-3.5583c-0.44436-0.20741-0.53313-0.58966-0.20075-0.85779l5.4827-4.4229c0.33093-0.26696 0.96393-0.32488 1.4211-0.1292"/>
      <path id="path5303" style="opacity:.99720;fill:#4d4d4d" d="m301.87 230.06l4.8567-4.0444c0.48218-0.40154 0.34597-0.96669-0.30754-1.269l-6.7014-3.1002c-0.6892-0.31885-1.6531-0.24582-2.1588 0.16575l-5.0956 4.1467c-0.51488 0.419-0.35262 1.0062 0.36135 1.3146l6.9402 2.9979c0.67661 0.29228 1.6145 0.19718 2.1051-0.21136"/>
      <path id="path5305" style="opacity:.99720;fill:#4d4d4d" d="m229.76 221.52l6.5446 2.8366c0.47414 0.20551 0.53451 0.60338 0.13375 0.8922l-5.7006 4.1085c-0.4129 0.29758-1.1291 0.36459-1.6042 0.15012l-6.5559-2.9596c-0.46065-0.20796-0.49725-0.60782-0.0837-0.89641l5.7118-3.9855c0.40165-0.28026 1.0941-0.34527 1.5541-0.14591"/>
      <path id="path5307" style="opacity:.99720;fill:#4d4d4d" d="m241.43 233.77l-6.5661-3.2599c-0.57862-0.28728-1.3985-0.26333-1.837 0.0541l-5.0243 3.6372c-0.43561 0.31534-0.31571 0.79587 0.2675 1.077l6.6186 3.1907c0.56831 0.27397 1.3719 0.2452 1.803-0.0642l4.9718-3.568c0.43388-0.31137 0.3303-0.78707-0.23347-1.067"/>
      <path id="path5309" style="opacity:.99720;fill:#4d4d4d" d="m250.22 243.4l5.1744-4.1c0.49988-0.39609 0.32157-0.98552-0.39536-1.3232l-7.0658-3.3275c-0.69839-0.32889-1.6776-0.29272-2.2 0.0825l-5.4042 3.882c-0.56074 0.40281-0.43599 1.0104 0.28468 1.3606l7.2955 3.5456c0.74068 0.35997 1.7734 0.30564 2.3107-0.12003"/>
      <path id="path5311" style="opacity:.99720;fill:#4d4d4d" d="m259.03 236.38l4.97-3.8671c0.49142-0.38237 0.28501-0.94969-0.45628-1.2704l-7.0818-3.0639c-0.67862-0.2936-1.6033-0.24111-2.0791 0.11631l-4.8081 3.6123c-0.48734 0.36614-0.35081 0.9155 0.31184 1.2333l6.9198 3.3186c0.72483 0.3476 1.7194 0.31312 2.2235-0.0791"/>
      <path id="path5313" style="opacity:.99720;fill:#4d4d4d" d="m249.93 227.48l-6.3488-3.2151c-0.63682-0.3225-1.5449-0.2967-2.0377 0.0592l-5.0332 3.6354c-0.51557 0.37239-0.40399 0.93976 0.25192 1.2706l6.5387 3.2985c0.65371 0.32977 1.5807 0.28738 2.0768-0.0935l4.8432-3.7188c0.47422-0.36412 0.34372-0.91491-0.29103-1.2364"/>
      <path id="path5315" style="opacity:.99720;fill:#4d4d4d" d="m278.38 233.43l-6.5115-2.9324c-0.51103-0.23014-1.2562-0.15586-1.6726 0.16645l-5.265 4.0748c-0.42578 0.32952-0.36089 0.78842 0.14741 1.029l6.4783 3.0666c0.52816 0.25 1.3 0.17729 1.7286-0.16317l5.2982-4.2089c0.41897-0.33283 0.3274-0.79329-0.20333-1.0323"/>
      <path id="path5317" style="opacity:.99720;fill:#4d4d4d" d="m286.65 226.74l-5.895-2.8853c-0.59939-0.29337-1.4865-0.21851-1.9888 0.16953l-5.0906 3.9329c-0.51745 0.39976-0.43437 0.95745 0.18595 1.2487l6.0991 2.8633c0.60141 0.28235 1.4851 0.18836 1.9817-0.20906l4.8865-3.9109c0.48227-0.38598 0.40264-0.92452-0.1788-1.2091"/>
      <path id="path5319" style="opacity:.99720;fill:#4d4d4d" d="m267.68 229.91l4.7868-3.6774c0.47526-0.36512 0.27216-0.91036-0.45297-1.2222l-7.1342-3.0685c-0.70394-0.30277-1.6504-0.2603-2.1244 0.095l-4.7737 3.5777c-0.4821 0.36131-0.30657 0.90362 0.39597 1.2162l7.1211 3.1682c0.72391 0.32207 1.6979 0.28252 2.1814-0.0889"/>
      <path id="path5321" style="opacity:.99720;fill:#4d4d4d" d="m258.51 221.23l-6.3245-3.0157c-0.61419-0.29286-1.4971-0.25019-1.9848 0.0958l-5.0035 3.5492c-0.51485 0.36521-0.43801 0.91426 0.17777 1.231l6.3477 3.2653c0.65628 0.3376 1.6024 0.29433 2.1154-0.097l4.9802-3.7988c0.48491-0.36988 0.34494-0.91833-0.30824-1.2298"/>
      <path id="path5323" style="opacity:.99720;fill:#4d4d4d" d="m239.23 214.77l6.5304 2.8878c0.46888 0.20735 0.51676 0.61375 0.10635 0.91151l-5.8251 4.2262c-0.42099 0.30545-1.1414 0.38036-1.6143 0.16766l-6.5853-2.962c-0.46697-0.21005-0.50002-0.62093-0.0751-0.92098l5.8799-4.152c0.41432-0.29255 1.1199-0.36297 1.583-0.15816"/>
      <path id="path5325" style="opacity:.99720;fill:#4d4d4d" d="m247.91 208.65l6.6304 2.8603c0.47877 0.20654 0.55859 0.59417 0.17803 0.86906l-5.3674 3.8771c-0.38547 0.27844-1.0806 0.33188-1.5576 0.11989l-6.6052-2.9355c-0.46575-0.20698-0.5311-0.59335-0.14747-0.86637l5.3423-3.802c0.37881-0.26959 1.0594-0.3243 1.527-0.1226"/>
      <path id="path5327" style="opacity:.99720;fill:#4d4d4d" d="m266.54 215.36l-6.2936-2.8531c-0.61139-0.27716-1.4687-0.242-1.926 0.0781l-4.6175 3.2316c-0.46757 0.32724-0.36209 0.82606 0.24034 1.1193l6.204 3.0198c0.6408 0.31191 1.544 0.28664 2.0208-0.0576l4.707-3.3984c0.46599-0.33644 0.31465-0.84513-0.33512-1.1397"/>
      <path id="path5329" style="opacity:.99720;fill:#4d4d4d" d="m275.86 223.5l4.8347-3.737c0.4788-0.3701 0.28912-0.90789-0.42263-1.2057l-6.9998-2.9292c-0.69041-0.28891-1.63-0.23224-2.1093 0.12697l-4.8387 3.6264c-0.48989 0.36716-0.33039 0.904 0.36026 1.2038l7.0038 3.0398c0.7123 0.30915 1.6821 0.25344 2.1717-0.125"/>
      <path id="path5331" style="opacity:.99720;fill:#4d4d4d" d="m282.59 221.05l5.1282-3.9881c0.50684-0.39414 1.3657-0.49167 1.9274-0.21916l5.6508 2.7412c0.57006 0.27654 0.62613 0.82259 0.12393 1.2249l-5.0819 4.0707c-0.51575 0.41312-1.3952 0.51679-1.97 0.23189l-5.697-2.8238c-0.56629-0.28068-0.60176-0.83289-0.0814-1.2376"/>
      <path id="path5333" style="opacity:.99720;fill:#4d4d4d" d="m273.82 209.91l-6.1464-2.7937c-0.62051-0.28204-1.4576-0.26299-1.877 0.0438l-4.2504 3.1091c-0.43196 0.31597-0.26765 0.79993 0.36856 1.084l6.3011 2.813c0.62585 0.2794 1.4649 0.24751 1.8811-0.0704l4.0957-3.1284c0.40424-0.30877 0.23798-0.77989-0.3726-1.0574"/>
      <path id="path5335" style="opacity:.99720;fill:#4d4d4d" d="m257.37 201.77l7.2694 3.0927c0.30975 0.13178 0.33763 0.39916 0.0618 0.59992l-6.7166 4.8879c-0.29408 0.21402-0.78857 0.27586-1.1079 0.1382l-7.4928-3.2302c-0.31617-0.1363-0.32545-0.41381-0.0216-0.62178l6.94-4.7505c0.28509-0.19515 0.76099-0.24686 1.0678-0.11633"/>
      <path id="path5337" style="opacity:.99720;fill:#4d4d4d" d="m284.09 217.4l4.1947-3.2197c0.41832-0.32108 0.18777-0.82011-0.51715-1.1193l-7.0706-3.0014c-0.71125-0.30191-1.6256-0.28666-2.05 0.0346l-4.2551 3.2219c-0.42793 0.32401-0.19475 0.82811 0.52259 1.1298l7.131 2.9992c0.71093 0.299 1.6227 0.27868 2.0445-0.0451"/>
      <path id="path5339" style="opacity:.99720;fill:#4d4d4d" d="m300.1 217.07l16.217-13.102c0.7577-0.61215 1.0819-1.2145 0.73036-1.3522l-7.016-2.7481c-0.33123-0.12974-1.1969 0.23651-1.9442 0.82272l-15.973 12.53c-0.80768 0.63358-1.2037 1.271-0.88443 1.4276l6.7717 3.3201c0.33979 0.1666 1.2774-0.23483 2.0985-0.89822"/>
      <path id="path5341" style="opacity:.99720;fill:#4d4d4d" d="m291.15 211.82l3.8061-2.9632c0.37751-0.29391 0.10804-0.76938-0.60056-1.0652l-6.8941-2.8786c-0.67272-0.28089-1.5122-0.27996-1.8857 0.001l-3.7641 2.835c-0.38048 0.28656-0.15144 0.75275 0.51697 1.046l6.852 3.0068c0.70449 0.30914 1.5844 0.31751 1.9693 0.0179"/>
      <path id="path5343" style="opacity:.99720;fill:#4d4d4d" d="m279.79 205.16l-6.1392-2.4334c-0.57508-0.22795-1.2974-0.21808-1.6265 0.0205l-3.3506 2.4282c-0.34206 0.24788-0.17126 0.65007 0.39007 0.90371l6.0025 2.7122c0.64397 0.29098 1.4566 0.30435 1.8132 0.0275l3.4871-2.7073c0.34201-0.26552 0.081-0.69079-0.57655-0.95142"/>
      <path id="path5345" style="opacity:.99720;fill:#4d4d4d" d="m266.64 203.45l-7.4129-3.1639c-0.3233-0.13799 0.0366-0.68217 0.80186-1.2171l16.019-11.196c0.65813-0.46 1.4331-0.73254 1.7416-0.61351l7.0645 2.7259c0.31746 0.1225 0.0586 0.60337-0.58442 1.0808l-15.67 11.634c-0.7496 0.55651-1.6256 0.89255-1.9592 0.75019"/>
      <path id="path5347" style="fill:#4d4d4d" d="m306.09 198.05s-16.224-6.2971-16.224-6.2971c-1.1117-0.43151-2.5219-0.41532-3.1444 0.0446l-10.851 8.017c-0.65174 0.48155-0.78476 0.89553 0.47896 1.2473l6.1688 2.5211c0.99792 0.40783 0.99594 0.42894 1.8625-0.20253l1.1548-0.84153c0.25252-0.18401 1.0093-0.25536 1.8207 0.0942l8.3578 3.601c0.92172 0.25655 1.7224 0.33465 2.2427-0.0742l8.695-6.8316c0.50071-0.39341 0.25469-0.96117-0.56228-1.2783" sodipodi:nodetypes="cccccssssccccc"/>
    </g>
  </g>
  <g id="layer3" inkscape:label="Layer#1" inkscape:groupmode="layer" transform="translate(-11.6 -34.764)">
    <path id="path5128" style="stroke:#999999;stroke-width:1.0228px;fill:none" d="m156.01 239.64 8.5912 4.2186 15.545-10.144-8.6068-4.0719-15.529 9.9969z" sodipodi:nodetypes="ccccc"/>
    <path id="path5132" style="stroke:#999999;stroke-width:1.0228px;fill:none" d="m171.6 229.61 8.4853 4.0153 14.991-9.9512-8.3926-3.8291-15.083 9.7651z" sodipodi:nodetypes="ccccc"/>
    <path id="path5130" style="stroke:#999999;stroke-width:1.0228px;fill:none" d="m186.54 219.85 8.6069 3.9261 12.814-8.4763-8.4282-3.7261-12.993 8.2763z" sodipodi:nodetypes="ccccc"/>
    <path id="path5134" style="stroke:#999999;stroke-width:1.0228px;fill:none" d="m199.54 211.55 8.4689 3.7426 11.603-7.8083-8.1753-3.5102-11.897 7.5758z" sodipodi:nodetypes="ccccc"/>
    <path id="path5136" style="stroke:#999999;stroke-width:1.0228px;fill:none" d="m211.48 203.99 8.002 3.437 11.644-7.4055-7.6727-3.7643-11.973 7.7328z" sodipodi:nodetypes="ccccc"/>
    <path id="rect2179" d="m247.26 274.11l27.886-23.181c1.5981-1.3285 4.9662-1.4924 7.5803-0.37258l14.032 6.218c2.7864 1.1936 3.8514 3.3228 2.3581 4.7799l-25.785 24.789c-1.7838 1.7406-5.6406 1.9946-8.6106 0.56157l-15.914-7.535c-2.7675-1.3354-3.4416-3.6839-1.5466-5.2592" style="opacity:0.89;stroke-linejoin:round;stroke:#727272;stroke-linecap:round;stroke-width:.69855;fill:url(#linearGradient5654)" sodipodi:nodetypes="cccccccccc"/>
    <g id="g6022" style="opacity:.65022;filter:url(#filter6093)">
      <path id="path3420" sodipodi:nodetypes="czzz" style="fill-rule:evenodd;fill:#ffffff" d="m203 234.4c2.1734 1.3424 2.7488 1.8219 0.28767 4.0273-2.4812 2.2234 1.0228-0.83103 0.79905-2.1095-0.22286-1.2734-3.2228-3.2371-1.0867-1.9177z"/>
      <g id="g5940">
        <path id="path3456" d="m252.35 211.84c2.1734 1.3424 2.7488 1.8219 0.28766 4.0273-2.4812 2.2234 1.0228-0.83104 0.79906-2.1095-0.22285-1.2734-3.2228-3.2371-1.0867-1.9178z" style="fill-rule:evenodd;fill:#ffffff" sodipodi:nodetypes="czzz"/>
        <g id="g5786">
          <g id="g5747">
            <path id="path2379" d="m184.97 310.6c2.1734 1.3424 1.8858 2.3013-0.57533 4.5067-2.4812 2.2234 0.73514-0.99083 1.4064-2.0136 0.7008-1.0679-2.9671-3.8124-0.83102-2.4931z" style="fill-rule:evenodd;fill:#ffffff" sodipodi:nodetypes="czzz"/>
            <path id="path3350" style="fill-rule:evenodd;fill:#ffffff" d="m205.3 294.59c2.1735 1.3424 2.6209 2.0136 0.15981 4.2191-2.4812 2.2234 0.47944-0.95888 1.2785-2.0456 0.77722-1.057-3.5744-3.4928-1.4383-2.1734z" sodipodi:nodetypes="czzz"/>
            <path id="path3352" d="m195.59 302.74c2.1734 1.3424 2.7488 1.8218 0.28766 4.0273-2.4812 2.2234 0.60729-1.2146 1.0867-1.8538 0.56403-0.75204-3.5104-3.4928-1.3744-2.1734z" style="fill-rule:evenodd;fill:#ffffff" sodipodi:nodetypes="czzz"/>
            <path id="path3354" style="fill-rule:evenodd;fill:#ffffff" d="m214.63 286.89c2.1734 1.3424 2.7488 1.8219 0.28766 4.0273-2.4812 2.2234 1.2146-0.86299 0.99084-2.0776-0.22277-1.2093-3.4146-3.269-1.2785-1.9497z" sodipodi:nodetypes="czzz"/>
            <path id="path3356" style="fill-rule:evenodd;fill:#ffffff" d="m192.63 287.78c2.136 1.3193 2.525 1.7739-0.016 3.8994-2.5521 2.1348 1.0538-1.493 1.3105-1.9817 0.25009-0.47625-3.4305-3.2371-1.2945-1.9178z" sodipodi:nodetypes="czzz"/>
            <path id="path3358" d="m178.13 283.72c2.589 1.4383 2.9451 1.9121 0.28767 4.0273-2.673 2.1275 1.0867-1.1187 1.0867-2.1095 0-1.0228-3.9499-3.3486-1.3744-1.9178z" style="fill-rule:evenodd;fill:#ffffff" sodipodi:nodetypes="czzz"/>
            <path id="path3360" style="fill-rule:evenodd;fill:#ffffff" d="m160.3 279.85c2.3013 1.2146 3.0045 1.9497 0.28766 4.0273-2.7123 2.0741 1.3744-1.1187 1.1507-2.0776-0.23792-1.0196-3.7173-3.1525-1.4383-1.9497z" sodipodi:nodetypes="czzz"/>
            <path id="path3362" d="m145.08 275.92c2.1735 1.2785 2.8766 2.0456 0.28767 4.0273-2.6003 1.9903 1.1826-0.86299 0.95887-2.1415-0.22285-1.2734-3.4484-3.181-1.2465-1.8858z" style="fill-rule:evenodd;fill:#ffffff" sodipodi:nodetypes="czzz"/>
            <path id="path3364" d="m150.23 286.98c2.1735 1.3424 2.8686 1.9286 0.28766 4.0273-2.5771 2.0956-4.2331 3.2124-0.73513 0.12786 3.5159-3.1004-1.6886-5.4744 0.44747-4.1551z" style="fill-rule:evenodd;fill:#ffffff" sodipodi:nodetypes="czzz"/>
            <path id="path3366" d="m167.87 291.04c3.6118 1.9178 3.0684 1.694-2.6209 6.2327-5.6738 4.5263 2.6387-2.7636 3.4839-3.7076 0.81509-0.91039-4.4499-4.4296-0.86299-2.525z" style="fill-rule:evenodd;fill:#ffffff" sodipodi:nodetypes="czzz"/>
            <path id="path3368" d="m182.35 294.84c2.1734 1.3424 2.2693 2.9406-3.8355 7.8628-6.1242 4.9379 5.6707-4.3923 4.1232-6.3925-1.5046-1.9448-2.4237-2.7896-0.28766-1.4703z" style="fill-rule:evenodd;fill:#ffffff" sodipodi:nodetypes="czzz"/>
            <path id="path3370" style="fill-rule:evenodd;fill:#ffffff" d="m134.31 283.11c2.6209 1.5342 2.6849 2.2054 0 4.219-2.6545 1.9909 1.4383-1.2785 1.2146-2.2374-0.21667-0.92858-3.8117-3.502-1.2146-1.9817z" sodipodi:nodetypes="czzz"/>
            <path id="path3372" style="fill-rule:evenodd;fill:#ffffff" d="m154.86 268.99c2.1735 1.3424 2.8766 2.0136 0.28766 4.0273-2.6202 2.038 0.7671-1.3424 1.1826-1.8538 0.38506-0.47393-3.6063-3.4928-1.4703-2.1734z" sodipodi:nodetypes="czzz"/>
            <path id="path3374" d="m170.4 272.57c2.1734 1.3424 2.7488 1.8219 0.28767 4.0273-2.4812 2.2234 1.0228-0.83103 0.79907-2.1095-0.22287-1.2734-3.2228-3.2371-1.0867-1.9178z" style="fill-rule:evenodd;fill:#ffffff" sodipodi:nodetypes="czzz"/>
            <path id="path3376" style="fill-rule:evenodd;fill:#ffffff" d="m187.4 276.3c2.1735 1.3424 2.7488 1.8218 0.28766 4.0273-2.4812 2.2234 1.0228-0.83102 0.79907-2.1095-0.22287-1.2734-3.2228-3.2371-1.0867-1.9177z" sodipodi:nodetypes="czzz"/>
            <path id="path3378" d="m202.22 280c2.8063 1.3876 3.2008 1.7767 0.28766 4.0273-2.87 2.2172 1.3431-1.3338 1.2511-2.1999-0.0873-0.82143-4.3819-3.2332-1.5388-1.8273z" style="fill-rule:evenodd;fill:#ffffff" sodipodi:nodetypes="czzz"/>
            <path id="path3380" style="fill-rule:evenodd;fill:#ffffff" d="m164.26 262.08c2.1734 1.3424 2.8642 1.9706 0.28767 4.0273-2.5451 2.0316 1.0228-0.89496 0.99083-2.0456-0.032-1.1506-3.4146-3.301-1.2785-1.9817z" sodipodi:nodetypes="czzz"/>
            <path id="path3382" style="fill-rule:evenodd;fill:#ffffff" d="m179.86 265.28c2.2374 1.2146 2.8766 1.8858 0.28767 4.0273-2.5465 2.1063 1.2146-0.7671 0.99083-2.0456-0.22286-1.2734-3.5236-3.2005-1.2785-1.9817z" sodipodi:nodetypes="czzz"/>
          </g>
          <g id="g5700">
            <g id="g5598">
              <path id="path3384" sodipodi:nodetypes="czzz" style="fill-rule:evenodd;fill:#ffffff" d="m196.69 269.1c2.1735 1.3424 2.7488 1.8219 0.28767 4.0273-2.4812 2.2234 1.0228-0.83102 0.79907-2.1095-0.22287-1.2734-3.2228-3.2371-1.0867-1.9178z"/>
              <path id="path3386" sodipodi:nodetypes="czzz" style="fill-rule:evenodd;fill:#ffffff" d="m212.33 272.06c3.0323 1.6588 2.7488 1.8219 0.28766 4.0273-2.4812 2.2234 1.2586-1.4249 1.1607-2.2451-0.0872-0.73103-4.4459-3.422-1.4483-1.7822z"/>
              <path id="path3388" sodipodi:nodetypes="czzz" style="fill-rule:evenodd;fill:#ffffff" d="m266.51 243.12c4.5691 2.5629 4.1051 1.4316-6.4926 10.22-10.508 8.7142 3.4511-4.2378 6.2343-6.7786 2.7606-2.5201-4.3797-6.0429 0.25835-3.4414z"/>
              <path id="path3390" sodipodi:nodetypes="czzz" style="fill-rule:evenodd;fill:#ffffff" d="m220.51 265.22c2.1734 1.3424 2.7488 1.8219 0.28767 4.0273-2.4812 2.2234 1.0228-0.83103 0.79906-2.1095-0.22287-1.2734-3.2228-3.2371-1.0867-1.9178z"/>
              <path id="path3392" sodipodi:nodetypes="czzz" style="fill-rule:evenodd;fill:#ffffff" d="m230.42 258.12c2.1734 1.3424 2.7488 1.8219 0.28767 4.0273-2.4812 2.2234 1.0228-0.83104 0.79907-2.1095-0.22287-1.2734-3.2228-3.2371-1.0867-1.9178z"/>
              <path id="path3394" sodipodi:nodetypes="czzz" style="fill-rule:evenodd;fill:#ffffff" d="m239.37 250.96c2.1734 1.3424 2.7488 1.8219 0.28767 4.0273-2.4812 2.2234 1.0228-0.83103 0.79905-2.1095-0.22285-1.2734-3.2228-3.2371-1.0867-1.9178z"/>
              <path id="path3398" sodipodi:nodetypes="czzz" style="fill-rule:evenodd;fill:#ffffff" d="m205.34 262.05c2.1734 1.3424 2.7488 1.8219 0.28766 4.0273-2.4812 2.2234 1.0228-0.83103 0.79906-2.1095-0.22286-1.2734-3.2228-3.2371-1.0867-1.9177z"/>
              <path id="path3400" sodipodi:nodetypes="czzz" style="fill-rule:evenodd;fill:#ffffff" d="m189.68 257.87c3.7716 1.9817 3.1323 1.9497 0.28766 4.0273-2.785 2.034 0.43519-0.83103 1.2059-1.9287 0.74206-1.0569-5.2391-4.0666-1.4936-2.0986z"/>
              <path id="path3402" sodipodi:nodetypes="czzz" style="fill-rule:evenodd;fill:#ffffff" d="m174.62 254.92c2.8127 1.662 3.1962 1.7579 0.28766 4.0273-2.869 2.2385 1.2785-0.76711 1.0548-2.0456-0.22286-1.2734-4.1079-3.6158-1.3424-1.9817z"/>
              <path id="path3404" sodipodi:nodetypes="czzz" style="fill-rule:evenodd;fill:#ffffff" d="m183.63 247.89c2.1734 1.3424 2.7488 1.8219 0.28766 4.0273-2.4812 2.2234 1.0228-0.83102 0.79907-2.1095-0.22286-1.2734-3.2228-3.2371-1.0867-1.9178z"/>
              <path id="path3406" sodipodi:nodetypes="czzz" style="fill-rule:evenodd;fill:#ffffff" d="m193.92 241.31c2.1734 1.3424 2.7488 1.8219 0.28765 4.0273-2.4812 2.2234 1.0228-0.83102 0.79907-2.1095-0.22286-1.2734-3.2228-3.2371-1.0867-1.9178z"/>
              <path id="path3408" sodipodi:nodetypes="czzz" style="fill-rule:evenodd;fill:#ffffff" d="m199.1 250.77c2.1735 1.3424 2.7488 1.8219 0.28766 4.0273-2.4812 2.2234 1.0228-0.83103 0.79907-2.1095-0.22287-1.2734-3.2228-3.2371-1.0867-1.9178z"/>
              <path id="path3410" sodipodi:nodetypes="czzz" style="fill-rule:evenodd;fill:#ffffff" d="m209.07 243.42c2.1734 1.3424 2.7488 1.8219 0.28766 4.0273-2.4812 2.2234 1.0228-0.83104 0.79907-2.1095-0.22286-1.2734-3.2228-3.2371-1.0867-1.9177z"/>
              <path id="path3412" sodipodi:nodetypes="czzz" style="fill-rule:evenodd;fill:#ffffff" d="m215.21 254.99c2.1734 1.3424 2.7488 1.8218 0.28766 4.0273-2.4812 2.2234 1.0228-0.83104 0.79906-2.1095-0.22285-1.2734-3.2228-3.2371-1.0867-1.9177z"/>
              <path id="path3414" sodipodi:nodetypes="czzz" style="fill-rule:evenodd;fill:#ffffff" d="m223.52 248.53c2.1734 1.3424 2.7488 1.8219 0.28767 4.0273-2.4812 2.2234 1.0228-0.83103 0.79907-2.1095-0.22286-1.2734-3.2228-3.2371-1.0867-1.9178z"/>
              <path id="path3416" sodipodi:nodetypes="czzz" style="fill-rule:evenodd;fill:#ffffff" d="m218.41 236.64c2.1735 1.3424 2.7488 1.8219 0.28767 4.0273-2.4812 2.2234 1.0228-0.83102 0.79907-2.1095-0.22287-1.2734-3.2228-3.2371-1.0867-1.9178z"/>
              <path id="path3418" sodipodi:nodetypes="czzz" style="fill-rule:evenodd;fill:#ffffff" d="m232.14 242.01c2.3805 1.1929 2.8392 1.8219 0.37807 4.0273-2.4812 2.2234 1.294-1.509 1.2059-2.1999-0.0876-0.68665-4.0364-3.0563-1.5839-1.8274z"/>
              <path id="path3422" sodipodi:nodetypes="czzz" style="fill-rule:evenodd;fill:#ffffff" d="m212.05 227.46c2.3994 1.1616 3.02 1.9575 0.28765 4.0273-2.7258 2.0649 1.4296-1.6447 1.3415-2.2903-0.10025-0.73453-4.0112-2.8901-1.6291-1.737z"/>
              <path id="path3424" sodipodi:nodetypes="czzz" style="fill-rule:evenodd;fill:#ffffff" d="m235.78 223.91c2.3542 1.252 3.246 1.5959 0.28766 4.0273-2.9363 2.4133 1.4296-0.92143 1.2059-2.1999-0.22285-1.2734-3.8293-3.0695-1.4935-1.8273z"/>
              <path id="path3426" sodipodi:nodetypes="czzz" style="fill-rule:evenodd;fill:#ffffff" d="m226.84 230.27c2.3091 1.1842 2.9296 2.0027 0.28767 4.0273-2.6387 2.0221 1.3844-1.3735 1.2511-2.1999-0.14878-0.92219-3.8387-3.0069-1.5387-1.8274z"/>
              <path id="path3428" sodipodi:nodetypes="czzz" style="fill-rule:evenodd;fill:#ffffff" d="m273.51 223.26c2.2864 1.2068 2.6657 2.008 0.28765 4.0273-2.3911 2.0304 0.84192-1.1299 1.1833-1.7931 0.33241-0.6458-3.7397-3.4317-1.4709-2.2342z"/>
              <path id="path3430" sodipodi:nodetypes="czzz" style="fill-rule:evenodd;fill:#ffffff" d="m221.65 220.83c2.2639 1.1164 2.8844 1.7315 0.28767 3.7561-2.6188 2.0418 1.4296-1.3735 1.2511-2.0643-0.17605-0.68124-3.7663-2.7903-1.5388-1.6918z"/>
              <path id="path3432" sodipodi:nodetypes="czzz" style="fill-rule:evenodd;fill:#ffffff" d="m231.63 214.11c3.3735 1.8325 2.2515 1.5507-0.29998 3.6205-2.5244 2.0478 1.562-1.4713 1.3415-2.1999-0.22048-0.72864-4.415-3.253-1.0415-1.4205z"/>
              <path id="path3434" sodipodi:nodetypes="czzz" style="fill-rule:evenodd;fill:#ffffff" d="m244.42 217.72c2.4673 1.2972 2.9974 1.9574 0.28766 4.0273-2.7065 2.0673 1.3166-1.4412 1.2285-2.1095-0.0915-0.6937-3.9657-3.2057-1.5161-1.9178z"/>
              <path id="path3436" sodipodi:nodetypes="czzz" style="fill-rule:evenodd;fill:#ffffff" d="m258.23 221.81c2.1734 1.3424 2.7488 1.8219 0.28766 4.0273-2.4812 2.2234 1.0228-0.83101 0.79907-2.1095-0.22286-1.2734-3.2228-3.2371-1.0867-1.9178z"/>
              <path id="path3438" sodipodi:nodetypes="czzz" style="fill-rule:evenodd;fill:#ffffff" d="m249.6 228.2c2.1734 1.3424 2.7488 1.8219 0.28766 4.0273-2.4812 2.2234 1.0228-0.83101 0.79906-2.1095-0.22285-1.2734-3.2228-3.2371-1.0867-1.9178z"/>
              <path id="path3440" sodipodi:nodetypes="czzz" style="fill-rule:evenodd;fill:#ffffff" d="m241.13 234.84c2.7611 1.4328 2.8844 1.8671 0.28767 4.0273-2.5927 2.1568 1.294-1.4639 1.2059-2.2903-0.0944-0.88477-4.1642-3.1246-1.4936-1.737z"/>
              <path id="path3442" sodipodi:nodetypes="czzz" style="fill-rule:evenodd;fill:#ffffff" d="m255.87 236.64c2.1735 1.3424 2.7488 1.8219 0.28767 4.0273-2.4812 2.2234 1.0228-0.83102 0.79905-2.1095-0.22285-1.2734-3.2228-3.2371-1.0867-1.9178z"/>
              <path id="path3444" sodipodi:nodetypes="czzz" style="fill-rule:evenodd;fill:#ffffff" d="m264.91 230.23c2.5124 1.2068 2.907 1.7541 0.31026 3.8917-2.5811 2.1248 1.4312-1.4014 1.3415-2.1999-0.0872-0.77621-4.1095-2.8722-1.6517-1.6917z"/>
              <path id="path3446" sodipodi:nodetypes="czzz" style="fill-rule:evenodd;fill:#ffffff" d="m276.08 235.36c2.6848 1.4383 2.9725 1.8059 0.28765 4.0273-2.6692 2.2085 0.20299-0.57097 1.0068-1.5981 0.78397-1.0018-3.9596-3.8569-1.2945-2.4292z"/>
              <path id="path3448" sodipodi:nodetypes="czzz" style="fill-rule:evenodd;fill:#ffffff" d="m284.9 228.51c2.5124 1.139 2.9296 1.7767 0.28766 4.0273-2.6197 2.2317-0.0159-0.48391 1.0477-1.7253 1.0411-1.2151-3.8206-3.4286-1.3353-2.302z"/>
              <path id="path3450" sodipodi:nodetypes="czzz" style="fill-rule:evenodd;fill:#ffffff" d="m293.5 221.57c2.4672 1.2972 2.7488 1.8219 0.28765 4.0273-2.4812 2.2234 0.0751-0.67657 0.70867-1.8609 0.68117-1.2734-3.4366-3.4494-0.99632-2.1664z"/>
              <path id="path3452" sodipodi:nodetypes="czzz" style="fill-rule:evenodd;fill:#ffffff" d="m282.25 215.96c2.3492 1.1506 2.8606 1.8858 0.28767 4.0273-2.5715 2.1402 1.1991-1.4261 1.1347-2.2374-0.063-0.79401-3.7715-2.9405-1.4223-1.7899z"/>
              <path id="path3454" sodipodi:nodetypes="czzz" style="fill-rule:evenodd;fill:#ffffff" d="m266.64 215.12c2.8515 1.6136 2.8844 2.0027 0.28766 4.0273-2.6188 2.0418-1.0293 0.13655 0.75386-1.2507 1.8112-1.4091-3.7859-4.3296-1.0415-2.7766z"/>
              <path id="path3458" sodipodi:nodetypes="czzz" style="fill-rule:evenodd;fill:#ffffff" d="m240.29 207.74c3.2367 1.4612 3.2008 1.5507 0.19725 3.6657-3.025 2.1301 1.5136-1.127 1.2511-2.0643-0.26805-0.95703-4.6475-3.0456-1.4483-1.6014z"/>
              <path id="path3460" sodipodi:nodetypes="czzz" style="fill-rule:evenodd;fill:#ffffff" d="m249.99 200.52c2.1734 1.3424 2.7488 1.8219 0.28766 4.0273-2.4812 2.2234 1.0228-0.83103 0.79907-2.1095-0.22287-1.2734-3.2228-3.2371-1.0867-1.9178z"/>
              <path id="path3462" sodipodi:nodetypes="czzz" style="fill-rule:evenodd;fill:#ffffff" d="m260.15 206.15c2.1734 1.3424 2.7488 1.8219 0.28767 4.0273-2.4812 2.2234 1.0228-0.83102 0.79905-2.1095-0.22285-1.2734-3.2228-3.2371-1.0867-1.9178z"/>
              <path id="path3464" sodipodi:nodetypes="czzz" style="fill-rule:evenodd;fill:#ffffff" d="m274.12 209.42c2.7159 1.252 3.1104 1.8218 0.28767 4.0273-2.7669 2.1618-0.24286 0.073 1.0703-1.7479 1.2096-1.6774-3.9995-3.4971-1.358-2.2794z"/>
              <path id="path3466" sodipodi:nodetypes="czzz" style="fill-rule:evenodd;fill:#ffffff" d="m266.03 201.23c2.1735 1.3424 2.7488 1.8219 0.28766 4.0273-2.4812 2.2234 1.0228-0.83103 0.79907-2.1095-0.22286-1.2734-3.2228-3.2371-1.0867-1.9178z"/>
              <path id="path3468" sodipodi:nodetypes="czzz" style="fill-rule:evenodd;fill:#ffffff" d="m281.31 204.1c2.1734 1.3424 2.7488 1.8219 0.28766 4.0273-2.4812 2.2234 1.0228-0.83102 0.79906-2.1095-0.22285-1.2734-3.2228-3.2371-1.0867-1.9178z"/>
              <path id="path3470" sodipodi:nodetypes="czzz" style="fill-rule:evenodd;fill:#ffffff" d="m303.81 198.67c3.0684 1.1506 3.196 1.3135-3.2921 6.5523-6.4567 5.2135 1.5957-1.7256 3.7716-3.7716 2.1929-2.0619-3.5375-3.9275-0.47945-2.7807z"/>
              <path id="path3472" sodipodi:nodetypes="czzz" style="fill-rule:evenodd;fill:#ffffff" d="m292.75 194.39c2.1734 1.3424 2.7488 1.8219 0.28766 4.0273-2.4812 2.2234 1.0228-0.83102 0.79905-2.1095-0.22285-1.2734-3.2228-3.2371-1.0867-1.9178z"/>
              <path id="path3474" sodipodi:nodetypes="czzz" style="fill-rule:evenodd;fill:#ffffff" d="m270.21 185.73c3.8911 1.5684 3.7432 1.415-2.3793 6.1066-6.116 4.6866 2.6953-2.5487 3.9632-3.782 1.2694-1.2347-5.5072-3.906-1.5839-2.3246z"/>
            </g>
            <path id="path3396" d="m248.55 244.28c1.5628 0.95942 1.9764 1.3021 0.20684 2.8783-1.784 1.589 0.73542-0.59393 0.57454-1.5077-0.16023-0.91013-2.3172-2.3135-0.78138-1.3706z" style="fill-rule:evenodd;fill:#ffffff" sodipodi:nodetypes="czzz"/>
          </g>
        </g>
      </g>
    </g>
    <path id="path25800" sodipodi:nodetypes="ccsccccc" style="opacity:.22870;filter:url(#filter4298-9-1);fill:#ffffff" transform="matrix(.66708 0 0 .68397 74.794 80.784)" d="m304.07 248.2c-1.9033 0.0938-3.6191 0.60479-4.7304 1.5342l-38.771 32.442c-2.6355 2.2041-1.7075 5.483 2.1415 7.3514 0 0 5.0295 2.4079 9.9723 4.7624 33.987-6.1326 11.316-41.259 41.264-43.277-1.3321-0.59389-4.0592-1.7899-4.0592-1.7899-1.8178-0.78341-3.9138-1.1166-5.8172-1.0228z"/>
  </g>
  <metadata>
    <rdf:RDF>
      <cc:Work>
        <dc:format>image/svg+xml</dc:format>
        <dc:type rdf:resource="http://purl.org/dc/dcmitype/StillImage"/>
        <cc:license rdf:resource="http://creativecommons.org/licenses/publicdomain/"/>
        <dc:publisher>
          <cc:Agent rdf:about="http://openclipart.org/">
            <dc:title>Openclipart</dc:title>
          </cc:Agent>
        </dc:publisher>
        <dc:title>A gray laptop</dc:title>
        <dc:date>2009-10-02T16:13:43</dc:date>
        <dc:description>A gray laptop</dc:description>
        <dc:source>https://openclipart.org/detail/27651/a-gray-laptop-by-minduka-27651</dc:source>
        <dc:creator>
          <cc:Agent>
            <dc:title>Minduka</dc:title>
          </cc:Agent>
        </dc:creator>
        <dc:subject>
          <rdf:Bag>
            <rdf:li>computer</rdf:li>
            <rdf:li>laptop</rdf:li>
            <rdf:li>notebook</rdf:li>
            <rdf:li>remix</rdf:li>
          </rdf:Bag>
        </dc:subject>
      </cc:Work>
      <cc:License rdf:about="http://creativecommons.org/licenses/publicdomain/">
        <cc:permits rdf:resource="http://creativecommons.org/ns#Reproduction"/>
        <cc:permits rdf:resource="http://creativecommons.org/ns#Distribution"/>
        <cc:permits rdf:resource="http://creativecommons.org/ns#DerivativeWorks"/>
      </cc:License>
    </rdf:RDF>
  </metadata>
</svg>