<?xml version="1.0"?>
<svg xmlns="http://www.w3.org/2000/svg" width="722.70" height="578.16" viewBox="0,0,722.70,578.16">
<desc>R SVG Plot!</desc>
<rect width="100%" height="100%" style="fill:#FFFFFF"/>
<rect x="59.02" y="442.67" width="107.13" height="88.02" style="stroke-width:1;stroke:#000000;fill:#BEBEBE;stroke-opacity:1.000000;fill-opacity:1.000000" />
<rect x="187.57" y="394.53" width="107.13" height="136.17" style="stroke-width:1;stroke:#000000;fill:#BEBEBE;stroke-opacity:1.000000;fill-opacity:1.000000" />
<rect x="316.12" y="328.32" width="107.13" height="202.37" style="stroke-width:1;stroke:#000000;fill:#BEBEBE;stroke-opacity:1.000000;fill-opacity:1.000000" />
<rect x="444.67" y="222.25" width="107.13" height="308.45" style="stroke-width:1;stroke:#000000;fill:#BEBEBE;stroke-opacity:1.000000;fill-opacity:1.000000" />
<rect x="573.22" y="34.17" width="107.13" height="496.53" style="stroke-width:1;stroke:#000000;fill:#BEBEBE;stroke-opacity:1.000000;fill-opacity:1.000000" />
<text transform="translate(95.08,552.33) "  style="font-size:15" >50-54</text>
<text transform="translate(221.88,552.33) "  style="font-size:15" >55-59</text>
<text transform="translate(350.43,552.33) "  style="font-size:15" >60-64</text>
<text transform="translate(478.98,552.33) "  style="font-size:15" >65-69</text>
<text transform="translate(607.53,552.33) "  style="font-size:15" >70-74</text>
<text transform="translate(129.97,25.42) "  style="font-size:20" >Death Rates in Virginia (1940) per 1000 (Rural Male)</text>
<line x1="34.17" y1="530.69" x2="34.17" y2="79.31" style="stroke-width:1;stroke:#000000;fill:#000000;stroke-opacity:1.000000;fill-opacity:0.000000"/>
<line x1="34.17" y1="530.69" x2="30.00" y2="530.69" style="stroke-width:1;stroke:#000000;fill:#000000;stroke-opacity:1.000000;fill-opacity:0.000000"/>
<line x1="34.17" y1="455.46" x2="30.00" y2="455.46" style="stroke-width:1;stroke:#000000;fill:#000000;stroke-opacity:1.000000;fill-opacity:0.000000"/>
<line x1="34.17" y1="380.23" x2="30.00" y2="380.23" style="stroke-width:1;stroke:#000000;fill:#000000;stroke-opacity:1.000000;fill-opacity:0.000000"/>
<line x1="34.17" y1="305.00" x2="30.00" y2="305.00" style="stroke-width:1;stroke:#000000;fill:#000000;stroke-opacity:1.000000;fill-opacity:0.000000"/>
<line x1="34.17" y1="229.77" x2="30.00" y2="229.77" style="stroke-width:1;stroke:#000000;fill:#000000;stroke-opacity:1.000000;fill-opacity:0.000000"/>
<line x1="34.17" y1="154.54" x2="30.00" y2="154.54" style="stroke-width:1;stroke:#000000;fill:#000000;stroke-opacity:1.000000;fill-opacity:0.000000"/>
<line x1="34.17" y1="79.31" x2="30.00" y2="79.31" style="stroke-width:1;stroke:#000000;fill:#000000;stroke-opacity:1.000000;fill-opacity:0.000000"/>
<text transform="translate(25.83,534.44)  rotate(-90)"  style="font-size:15" >0</text>
<text transform="translate(25.83,463.71)  rotate(-90)"  style="font-size:15" >10</text>
<text transform="translate(25.83,388.48)  rotate(-90)"  style="font-size:15" >20</text>
<text transform="translate(25.83,313.25)  rotate(-90)"  style="font-size:15" >30</text>
<text transform="translate(25.83,238.02)  rotate(-90)"  style="font-size:15" >40</text>
<text transform="translate(25.83,162.79)  rotate(-90)"  style="font-size:15" >50</text>
<text transform="translate(25.83,87.56)  rotate(-90)"  style="font-size:15" >60</text>
</svg>
